<svg width="600" height="600" viewBox="0 0 600 600" fill="none" xmlns="http://www.w3.org/2000/svg">
<path d="M17.5508 88.9795C12.857 93.4693 13.4692 100.612 18.9794 105.51C21.4284 107.755 31.2243 114.898 40.6121 121.428L57.7549 133.265L56.5304 193.673C55.7141 226.939 53.8774 266.939 52.2447 282.653C50.6121 298.367 49.5917 311.633 49.9998 311.837C50.408 312.245 59.9998 313.061 71.2243 313.673L91.8366 314.898L92.0406 337.551C92.0406 373.061 94.2855 387.551 99.9998 391.837C104.49 395.306 104.898 397.143 106.122 423.061C107.551 452.449 109.796 459.592 118.979 463.061C124.694 465.306 197.959 469.388 230.816 469.388C252.449 469.388 255.306 469.796 254.286 472.653C253.673 474.49 253.061 476.939 253.061 478.367C253.061 480.204 247.959 481.429 235.918 482.041C217.551 483.265 205.918 487.755 193.469 497.959C187.347 503.061 187.143 504.082 189.388 508.98L191.837 514.286H284.694H377.551L378.775 508.98C380.408 502.449 375.102 496.531 360.816 488.775C352.449 484.286 347.143 482.857 332.449 482.041L314.286 481.02V475.306V469.388H333.061C343.469 469.388 369.388 468.367 390.816 467.143C430.612 464.694 438.775 462.857 442.857 455.306C444.286 452.449 448.775 397.755 448.979 378.367C448.979 377.143 452.041 375.51 455.714 374.694C464.898 372.857 483.265 365.51 492.449 359.796C496.734 357.143 501.02 355.102 502.041 355.51C503.061 355.918 514.49 368.98 527.551 384.694C567.959 433.061 568.775 433.673 580 423.061C588.979 414.49 587.551 409.796 570.816 390C562.653 380.408 548.775 364.082 540 353.673L524.081 334.898L532.653 324.286C580.408 263.877 564.898 168.775 499.183 118.98C453.877 84.6938 397.551 78.3672 348.979 102.245C334.694 109.388 328.367 114.286 313.265 129.388C301.02 142.041 292.449 152.653 287.755 161.837C280.816 175.102 280.408 175.51 272.449 175.51C267.959 175.51 261.02 176.122 256.939 176.735L249.388 177.959L247.959 135.102C247.143 111.633 245.918 91.4285 245.102 90.204C244.286 88.9795 211.837 88.5714 148.367 89.3877L52.6529 90.4081L54.0815 97.1428C54.6937 101.02 54.6937 104.082 54.0815 104.082C53.4692 104.082 47.5508 99.9999 40.6121 94.8979C27.1427 85.102 22.6529 83.8775 17.5508 88.9795ZM442.857 95.102C481.837 103.877 522.449 136.735 541.428 174.694C553.265 198.367 556.122 211.224 556.122 241.837C556.122 268.163 555.714 271.633 550.204 286.326C538.775 317.551 516.939 342.449 489.388 355.918C469.183 365.714 453.673 369.388 431.428 369.388C376.122 369.388 324.898 336.939 298.979 285.714C274.081 236.531 277.959 180.408 308.571 140C339.592 98.9795 388.367 82.8571 442.857 95.102ZM243.673 104.286C244.286 111.224 244.898 130.612 244.898 147.143C244.898 174.898 244.49 177.959 240.816 181.633C238.367 184.082 236.735 188.367 236.735 192.653C236.735 196.326 236.122 203.673 235.51 208.98L234.081 218.367H212.449C189.388 218.367 128.571 221.837 121.02 223.469C114.286 225.102 108.571 232.041 107.143 240.612C106.326 245.918 104.286 248.98 100.204 251.428C94.4896 254.49 94.2855 255.102 93.0611 276.735C92.2447 288.98 91.4284 301.633 91.2243 305.102L90.8162 311.224L72.4488 310.408C62.4488 310.204 53.6733 309.388 53.2651 309.184C52.857 308.775 53.6733 297.551 54.8978 284.286C58.9794 241.224 61.4284 176.939 59.9998 155.102C58.7753 137.143 58.9794 134.082 61.4284 135.918C63.0611 137.143 73.4692 144.49 84.6937 152.245L105.102 166.326L96.9386 167.551L88.7753 168.775L99.1835 169.184C107.755 169.388 111.428 170.816 122.449 178.571L135.51 187.755H116.939C85.51 187.755 93.6733 191.428 127.143 192.245C144.081 192.653 158.571 192.857 158.979 192.653C160.204 191.633 151.428 178.571 146.735 174.286C142.449 170.408 142.449 170.408 162.449 169.184L182.653 168.163L160.612 167.755L138.367 167.347L125.306 157.551L112.245 147.959L127.959 146.939C140 146.122 142.653 145.51 138.979 144.082C136.326 143.265 128.571 143.061 121.632 143.877L108.979 145.102L83.0611 126.122C57.7549 107.755 57.1427 107.143 57.1427 99.5918V91.8366H149.796H242.245L243.673 104.286ZM42.857 103.877C42.857 105.714 41.8366 108.367 40.408 109.796C37.3468 112.857 30.6121 113.061 30.6121 110.204C30.6121 108.98 31.4284 108.163 32.2447 108.163C33.2651 108.163 35.306 105.918 36.7345 103.061C39.5917 97.755 42.857 97.9591 42.857 103.877ZM151.02 183.877C153.469 187.143 155.306 190.408 154.898 190.816C154.49 191.02 150.612 190 146.53 188.367C139.796 185.714 139.184 184.898 141.428 181.428C144.694 176.122 145.918 176.531 151.02 183.877ZM279.592 180C279.592 181.428 278.979 184.694 278.367 187.143C277.143 191.633 276.122 191.837 258.979 191.837C240.408 191.837 238.367 190.816 242.857 183.673C244.081 181.633 249.796 180.204 260.612 179.388C269.388 178.775 277.143 178.163 278.163 177.959C278.979 177.755 279.592 178.775 279.592 180ZM274.286 210.612C272.857 231.633 272.653 232.041 266.939 233.265C262.857 234.082 262.857 234.082 267.959 234.49C271.632 234.694 273.469 235.714 273.469 238.163C273.469 240.204 274.081 243.877 274.694 246.326C275.714 250.408 275.102 251.02 270.816 251.02C267.959 251.02 264.898 251.837 264.286 253.061C263.469 254.286 265.918 255.102 270.204 255.102C274.286 255.102 277.551 255.918 277.551 256.939C277.551 257.959 278.163 261.428 278.775 264.898C280 271.02 279.796 271.224 272.245 272.041L264.286 272.857L272.653 273.061C280.408 273.469 281.428 274.082 284.286 281.02L287.347 288.775L277.755 289.388C262.653 290.408 262.653 293.877 277.755 293.877H290.816L295.51 302.857C298.163 307.755 304.898 316.939 310.612 323.265C316.326 329.592 320.612 335.102 320.204 335.306C319.796 335.714 302.857 335.306 282.857 334.286C253.877 333.061 245.51 332.245 243.061 329.592C238.979 325.51 236.326 272.857 238.163 228.163C239.592 191.633 237.551 194.49 260.612 194.082L275.306 193.877L274.286 210.612ZM234.694 235.306V244.286L179.796 245.51C149.796 246.326 123.673 247.347 121.632 248.163C116.939 250 117.347 240.408 122.245 235.918C126.122 232.449 155.714 229.796 209.184 227.959C219.388 227.551 229.184 227.143 231.224 226.939C234.081 226.531 234.694 228.163 234.694 235.306ZM234.694 254.694V260.612L166.939 261.837C129.592 262.653 98.3672 262.449 97.5508 261.633C96.7345 260.816 97.1427 258.367 98.7753 256.122C102.245 251.428 123.265 249.796 188.367 249.388L234.694 248.98V254.694ZM234.694 279.184C234.694 286.939 235.306 300.204 235.918 308.775C237.347 323.877 237.143 324.49 232.857 324.49C230.612 324.49 228.571 325.51 228.571 326.735C228.571 327.755 230.204 328.571 232.245 328.163C234.286 327.959 238.571 329.592 241.632 332.245L247.551 336.735H237.959C232.857 336.735 228.571 337.551 228.571 338.775C228.571 341.633 259.796 341.428 262.653 338.571C264.081 337.143 272.245 336.939 287.755 337.959L310.612 339.388L309.184 362.041C308.367 375.918 306.735 385.714 305.102 387.347C300.816 392.041 245.714 394.49 176.53 393.061C112.041 391.837 98.9794 390.408 97.1427 384.082C95.1019 376.531 93.4692 313.061 94.8978 289.796L96.3264 265.306H165.51H234.694V279.184ZM552.857 373.469C569.796 393.673 583.673 411.633 583.673 413.061C583.673 416.122 572.449 426.531 569.388 426.531C567.551 426.531 557.347 415.102 524.694 376.531L504.081 352.245L512.653 344.49C517.551 340.408 521.632 336.939 521.837 336.735C521.837 336.735 535.918 353.265 552.857 373.469ZM333.877 345.918C359.592 365.51 385.714 375.51 415.306 376.939L435.918 377.959L435.102 391.633C434.081 407.551 431.02 413.265 422.449 414.898C404.081 418.571 277.959 420.612 206.939 418.367C165.918 417.143 131.02 415.51 128.979 414.898C122.245 412.449 118.367 407.551 118.367 401.224V394.898L178.979 395.714C212.245 396.122 253.673 395.714 270.816 394.898C311.632 393.061 310.816 393.673 311.837 365.102C312.245 353.469 312.857 342.653 313.265 341.224C314.898 336.531 324.49 338.775 333.877 345.918ZM115.102 423.469C122.245 428.163 176.939 430.612 277.551 430.612C377.143 430.612 430.816 428.163 438.163 423.469L442.857 420.408V435.51C442.857 454.694 439.796 458.98 424.694 461.429C385.714 467.551 221.224 468.775 148.163 463.265C120.204 461.224 113.061 458.775 111.428 450.408C110 443.265 108.367 420.408 109.388 420.408C110 420.408 112.449 421.837 115.102 423.469ZM311.02 475.714C313.265 486.939 312.449 491.429 308.163 492.857C297.347 496.326 259.388 494.898 255.51 490.816C255.102 490.408 255.306 485.306 256.122 479.796L257.551 469.388H283.673H309.796L311.02 475.714ZM252.041 490.204C254.694 496.122 262.653 498.163 284.694 497.959C306.122 497.959 316.326 495.306 316.326 489.592C316.326 486.122 317.959 485.714 333.265 485.714C349.796 485.714 350.816 485.918 363.265 494.082C370.204 498.571 375.306 502.857 374.694 503.673C372.653 505.51 194.081 505.918 192.857 504.082C191.837 502.245 207.959 491.429 216.326 487.959C219.184 486.939 227.959 485.918 235.714 485.918C248.571 485.714 250.204 486.122 252.041 490.204Z" fill="black"/>
<path d="M382.244 111.225C363.877 116.327 346.734 126.327 332.449 140.612C308.571 164.49 298.775 191.225 300.612 227.551C302.449 261.837 314.081 287.347 339.795 313.469C358.775 332.653 380.816 344.898 406.122 350.204C455.51 360.612 506.53 336.531 528.571 292.245C563.673 222.041 517.959 130 438.775 111.429C422.449 107.551 396.326 107.551 382.244 111.225ZM440.816 122.245C513.877 145.51 551.632 230 518.775 297.755C507.755 320.816 480.612 341.837 456.734 346.122C449.387 347.347 448.979 347.143 448.979 342.245C448.979 337.755 450 337.143 458.367 336.122C474.898 334.286 475.714 332.449 477.755 289.796C480.204 240.408 477.347 186.735 472.04 181.429C467.142 176.531 425.714 173.469 360.612 173.469H312.244L316.122 165.51C326.938 144.286 351.632 125.918 378.163 119.184C393.061 115.306 424.081 116.939 440.816 122.245ZM443.673 178.776C461.428 180 466.734 181.02 469.795 184.082C471.836 186.122 473.061 188.776 472.449 189.796C471.224 191.633 306.122 192.857 306.122 191.02C306.122 190.816 307.142 187.551 308.367 184.082C309.795 179.592 312.244 177.551 315.918 176.735C322.857 175.51 413.877 176.939 443.673 178.776ZM474.489 215.714C475.51 227.959 475.51 257.347 474.898 281.429C473.673 320.408 473.265 325.714 469.795 328.98C466.53 332.449 460.408 333.061 421.02 334.898L375.918 337.143L365.918 331.429C360.612 328.367 349.183 318.776 340.816 310.408C324.081 293.469 311.02 270.816 305.918 248.98C303.061 237.347 302.449 200.204 304.898 196.122C305.918 194.49 330.408 193.878 389.795 193.878H473.061L474.489 215.714ZM436.734 343.061V349.592L420 348.367C410.612 347.755 398.571 345.51 392.857 343.469L382.653 339.796L408.163 338.776C422.244 338.163 434.285 337.347 435.306 337.143C436.122 336.939 436.734 339.592 436.734 343.061Z" fill="black"/>
<path d="M414.286 132.857C465.306 138.776 502.857 170.612 515.306 218.367C518.775 231.225 518.571 254.082 515.306 275.51C514.286 281.02 514.49 281.837 516.122 279.388C517.347 277.551 519.388 268.98 520.612 260.612C523.877 237.959 520.204 214.898 509.796 193.469C491.837 156.327 450.612 130 411.224 130.816L398.979 131.225L414.286 132.857Z" fill="black"/>
<path d="M351.428 210.612C348.775 213.265 347.959 219.184 350.612 217.755C351.428 217.143 352.04 237.347 352.245 262.449C352.245 299.388 352.857 308.775 355.306 311.224C359.591 315.51 393.469 318.979 424.081 318.163C445.306 317.551 450.204 317.959 448.571 319.796C444.898 324.286 450.204 322.653 454.285 318.163C457.959 314.082 457.959 313.877 454.081 311.02C452.04 309.388 448.775 308.163 447.143 308.163C444.898 308.163 445.102 308.775 447.959 311.02C451.428 313.469 450.204 314.082 435.714 315.306C420.612 316.939 367.551 313.877 360.612 311.02C356.734 309.592 355.102 303.673 355.102 291.02C355.102 280.204 354.694 280.408 368.979 286.122C375.714 288.775 375.918 288.775 384.489 278.775L393.061 268.775L403.061 272.041C408.571 274.082 413.673 275.51 414.489 275.51C415.51 275.51 420.408 268.775 425.714 260.612C431.02 252.653 437.959 242.041 441.224 237.143C444.489 232.449 446.326 228.571 445.102 228.571C444.081 228.571 436.938 238.163 429.387 250C420.816 263.061 414.081 271.428 412.04 271.428C410.204 271.428 405.102 270 400.816 268.163L392.857 264.898L383.673 274.898L374.489 285.102L365.306 281.633L356.122 277.959L355.51 246.939C355.102 226.122 355.714 216.531 357.143 217.347C360 219.184 359.796 215.714 356.53 211.633C354.489 208.775 353.469 208.571 351.428 210.612Z" fill="black"/>
<path d="M127.551 122.449C95.3062 123.469 95.1021 123.469 112.245 125.102C129.184 126.53 168.163 124.286 170.816 121.633C171.429 121.02 169.388 120.612 166.123 120.816C162.857 121.02 145.51 121.837 127.551 122.449Z" fill="black"/>
<path d="M148.367 280.816C135.918 284.694 122.245 297.959 118.775 309.388C109.183 341.428 130.408 371.224 162.857 371.428C194.489 371.428 216.326 342.449 207.347 311.837C200.204 286.939 173.469 272.857 148.367 280.816ZM161.224 303.265V325.102L171.428 342.857C177.143 352.653 181.632 361.633 181.632 362.857C181.632 364.082 177.755 366.122 173.061 367.347C142.245 375.714 112.04 345.51 120.204 314.694C124.694 298.163 142.857 281.633 156.734 281.633C161.02 281.633 161.224 282.245 161.224 303.265ZM181.224 285.51C185.306 287.755 191.428 292.245 194.489 295.51L200.408 301.633L185.306 310.204C177.143 315.102 169.183 319.796 167.959 321.02C165.918 322.449 165.306 318.571 165.306 302.245C165.306 282.857 165.51 281.633 169.387 281.633C171.836 281.633 176.938 283.469 181.224 285.51ZM204.898 310.612C205.51 313.265 206.122 317.347 206.122 319.796C206.122 324.286 205.51 324.49 188.775 324.49C179.183 324.49 171.428 323.877 171.428 322.857C171.428 321.224 197.959 306.326 201.224 306.122C202.653 306.122 204.081 308.163 204.898 310.612ZM206.122 331.633C206.122 342.041 191.02 363.469 185.918 360.408C183.877 358.979 167.347 330.204 167.347 327.755C167.347 327.143 176.122 326.531 186.734 326.531H206.122V331.633Z" fill="black"/>
<path d="M227.755 353.265C229.184 355.714 283.061 355.714 284.49 353.265C285.102 352.245 272.653 351.429 256.122 351.429C238.979 351.429 226.939 352.245 227.755 353.265Z" fill="black"/>
<path d="M245.918 367.347L225.51 368.571L249.592 368.979C264.286 369.183 273.469 368.571 273.469 367.347C273.469 366.122 271.837 365.51 270 365.714C267.959 365.918 257.143 366.734 245.918 367.347Z" fill="black"/>
</svg>
