<svg width="600" height="600" viewBox="0 0 600 600" fill="none" xmlns="http://www.w3.org/2000/svg">
<path d="M293.3 79.4925C263.605 85.3629 259.882 86.1494 258.279 86.964C254.613 88.8178 252.952 92.4973 253.611 97.2162C254.098 100.615 257.391 117.524 261.572 137.944C263.691 148.449 265.667 158.168 265.953 159.572C266.583 162.577 267.929 165.555 269.361 167.015C270.821 168.532 272.167 168.841 276.978 168.841C280.5 168.813 281.388 168.701 284.423 167.942C288.289 166.959 336.597 157.381 340.836 156.763C345.503 156.061 347.536 154.741 349.426 151.117C350.257 149.544 350.285 149.32 350.257 146.09C350.228 142.859 349.97 141.399 344.043 112.524C340.635 95.9241 337.514 81.1778 337.17 79.7734C336.225 76.2062 335.452 74.9984 333.533 73.931C332.13 73.1727 331.701 73.0603 329.238 73.0041C326.689 72.948 324.427 73.3412 293.3 79.4925ZM329.839 78.2285C332.617 79.9981 331.987 77.6949 338.23 107.749C341.322 122.664 344.501 137.776 345.245 141.343C346.505 147.241 346.591 147.943 346.248 148.898C345.675 150.612 344.902 151.146 342.038 151.96C340.578 152.353 329.295 154.685 316.925 157.156C304.554 159.628 290.322 162.493 285.282 163.532L276.09 165.414L274.429 164.937C272.253 164.319 270.449 162.577 269.991 160.639C269.819 159.881 267.929 150.893 265.781 140.612C263.662 130.332 260.942 117.58 259.739 112.243C256.761 98.7329 256.36 96.4578 256.761 94.6882C257.248 92.4973 257.992 91.5143 259.281 91.2896C261.314 90.9525 327.663 77.6949 327.949 77.5825C328.436 77.3578 328.522 77.3859 329.839 78.2285Z" fill="black"/>
<path d="M288.145 104.857C285.597 105.222 280.671 106.374 280.041 106.795C279.354 107.244 279.326 107.272 279.841 107.638C280.127 107.862 280.643 108.031 280.929 108.031C281.559 108.031 281.531 108.48 280.729 111.345C280.5 112.16 279.784 116.457 279.154 120.895C276.29 140.922 275.689 145.191 275.689 145.753C275.689 146.175 275.374 146.512 274.772 146.792C274.257 147.017 273.799 147.382 273.742 147.551C273.57 148.113 275.059 148.506 276.519 148.337C279.297 148 284.738 146.961 285.081 146.708C285.253 146.568 285.425 146.146 285.425 145.781C285.425 144.967 284.509 144.686 282.647 144.939L281.33 145.107L281.502 143.647C281.588 142.832 281.989 139.827 282.39 136.962C282.791 134.097 283.134 131.737 283.134 131.681C283.134 131.653 283.678 131.625 284.365 131.625C285.883 131.625 293.414 130.333 294.989 129.799C295.619 129.574 296.249 129.49 296.335 129.603C296.45 129.715 297.509 131.737 298.741 134.097C300.774 138.085 300.917 138.45 300.487 138.9C299.285 140.22 300.487 140.81 303.437 140.332C307.217 139.742 308.849 138.703 307.704 137.58C307.331 137.214 305.642 137.186 304.21 137.495L303.38 137.664L296.278 123.704C292.355 116.008 288.833 109.239 288.432 108.621L287.716 107.497L288.747 107.216C289.892 106.907 290.866 106.177 290.866 105.615C290.866 105.362 289.176 104.492 289.033 104.688C289.004 104.716 288.632 104.801 288.145 104.857ZM285.139 107.862C285.139 107.947 284.938 108.789 284.709 109.772C284.28 111.654 282.705 121.654 281.702 128.816C281.387 131.204 280.7 135.95 280.185 139.321L279.268 145.472L278.467 145.753C278.008 145.894 277.579 145.922 277.493 145.837C277.378 145.753 278.438 138.675 279.784 130.136C281.158 121.625 282.361 113.733 282.447 112.665C282.676 109.744 283.106 108.087 283.65 107.947C284.337 107.75 285.139 107.722 285.139 107.862ZM295.161 127.271C295.161 127.299 294.474 127.412 293.672 127.524C292.842 127.608 290.236 128.142 287.888 128.676C285.54 129.209 283.564 129.603 283.506 129.574C283.478 129.518 283.564 128.732 283.707 127.805C284.251 124.659 285.998 111.289 285.998 110.362C285.998 109.632 287 111.401 290.579 118.311C293.099 123.198 295.161 127.215 295.161 127.271Z" fill="black"/>
<path d="M318.614 115.333C316.495 115.698 314.347 116.934 312.171 119.125C308.563 122.692 306.902 127.13 307.274 132.13C307.475 134.545 308.105 135.922 309.565 137.073C310.539 137.832 310.94 137.944 312.801 138.028C314.748 138.14 315.121 138.056 316.753 137.27C318.815 136.287 322.365 133.197 323.539 131.399L324.313 130.22L324.484 131.175C324.914 133.337 326.747 134.573 329.238 134.349C331.214 134.18 332.359 133.618 333.934 132.073C335.251 130.809 336.826 127.888 336.569 127.242C336.282 126.512 335.681 126.821 333.963 128.562C331.643 130.866 330.183 131.68 328.608 131.568C327.463 131.484 327.348 131.427 327.004 130.36C326.46 128.815 326.775 124.321 327.606 121.091C327.978 119.687 328.264 117.917 328.264 117.159C328.236 115.782 328.207 115.754 327.319 115.67C326.518 115.586 326.374 115.67 326.203 116.372C325.802 118.198 325.83 118.198 324.914 117.187C323.482 115.558 321.249 114.912 318.614 115.333ZM323.081 118.142C323.969 118.591 324.885 118.984 325.114 118.984C325.601 118.984 325.601 119.012 325.229 119.967C325.057 120.389 324.742 121.793 324.513 123.113C323.854 126.821 322.079 130.192 319.53 132.551C315.35 136.399 311.942 137.045 309.937 134.349C309.422 133.674 309.336 133.169 309.365 131.259C309.393 129.995 309.594 128.253 309.852 127.411C310.94 123.759 314.433 119.602 317.583 118.114C319.845 117.074 321.02 117.074 323.081 118.142Z" fill="black"/>
<path d="M470.412 136.09C469.21 136.456 467.348 137.72 466.604 138.703C466.203 139.208 465.544 140.444 465.172 141.455C463.626 145.472 463.626 145.472 462.337 144.798C460.132 143.646 447.332 139.686 444.096 139.18C442.263 138.871 442.091 138.899 440.23 139.658C437.682 140.697 437.767 140.528 435.162 150.5C434.904 151.511 434.818 151.567 433.758 151.567C433.157 151.567 432.327 151.455 431.954 151.314C431.553 151.146 430.666 150.977 429.95 150.893C428.06 150.668 427.315 151.455 427.029 153.842C426.915 154.825 426.514 156.763 426.141 158.168C425.769 159.544 425.225 162.212 424.91 164.066C424.595 165.92 424.022 168.813 423.621 170.527C422.648 174.712 422.39 177.183 422.905 177.577C423.135 177.745 424.137 177.97 425.139 178.082C426.141 178.167 427.029 178.307 427.086 178.363C427.144 178.419 426.915 179.543 426.571 180.835L425.941 183.194L424.91 182.689C423.564 182.015 422.791 182.043 421.875 182.801C421.216 183.391 420.901 184.458 418.581 195.104C417.178 201.508 415.918 207.322 415.747 208.024C415.432 209.485 415.804 210.131 417.178 210.412C418.066 210.608 418.152 210.861 417.722 212.125C417.579 212.575 417.322 213.473 417.15 214.119C416.863 215.243 416.777 215.327 415.89 215.327C415.317 215.327 414.744 215.552 414.429 215.889C413.742 216.647 409.275 234.624 409.59 235.41C409.676 235.635 410.019 235.888 410.334 236C410.678 236.084 410.821 236.309 410.735 236.562C410.649 236.787 410.42 237.77 410.248 238.725L409.905 240.466L408.101 239.904C406.354 239.371 406.268 239.315 406.268 238.444C406.268 237.938 407.7 230.467 409.418 221.872C411.165 213.249 413.628 201.03 414.887 194.682C416.176 188.363 417.35 182.857 417.493 182.464C417.923 181.397 420.185 170.161 421.331 163.504C421.875 160.246 422.533 156.707 422.762 155.64C423.02 154.544 423.335 152.382 423.45 150.781C423.736 147.466 424.509 145.5 425.569 145.219C425.941 145.135 428.06 145.275 430.294 145.528C434.245 145.977 436.049 145.921 436.049 145.359C436.049 144.601 430.294 143.45 426.399 143.421C424.91 143.421 424.509 143.534 423.736 144.152C422.591 145.107 421.731 146.764 421.531 148.421L421.388 149.741L418.123 149.629C412.511 149.46 408.931 150.696 407.184 153.365C406.354 154.657 406.583 152.719 402.001 198.755C399.252 226.338 399.109 227.714 398.909 233.107L398.737 237.826L395.845 237.657C386.968 237.096 376.086 240.157 366.751 245.803C358.847 250.606 351.917 256.926 345.932 264.706C343.212 268.245 341.752 271.616 342.668 272.178C342.811 272.262 342.868 272.599 342.783 272.88C342.697 273.189 342.897 273.666 343.212 273.975C343.871 274.621 347.221 275.745 350.085 276.279C351.058 276.475 351.86 276.7 351.86 276.784C351.86 276.868 351.402 278.245 350.801 279.846C350.113 281.812 349.655 282.711 349.397 282.627C349.197 282.542 347.966 282.402 346.648 282.318C343.985 282.121 342.983 282.43 343.928 283.132C344.443 283.525 344.386 283.638 343.298 285.885C341.752 289.031 341.179 291.334 341.179 294.395C341.179 298.215 342.697 301.474 345.102 302.934L346.133 303.58V305.996C346.133 307.344 346.219 309.254 346.305 310.265L346.477 312.091L344.3 314.394C341.723 317.091 339.89 318.551 334.679 322.062C332.56 323.495 330.211 325.18 329.496 325.826L328.178 326.978L328.694 327.792C329.868 329.674 334.507 332.624 340.119 335.011C343.384 336.387 356.871 340.348 361.081 341.134C362.713 341.443 365.233 341.78 366.693 341.893L369.357 342.089L369.271 344.926L369.185 347.763L367.037 347.96C363.973 348.269 353.807 349.785 349.426 350.6C340.835 352.229 329.496 355.291 321.907 358.015C311.97 361.611 294.674 369.672 289.348 373.239C288.403 373.857 287.63 374.306 287.573 374.25C287.544 374.194 287.086 370.683 286.599 366.442C282.017 327.343 277.522 290.884 276.519 284.621C275.689 279.284 274.429 276.672 271.479 274.032C269.045 271.869 268.816 271.728 266.84 271.504C260.941 270.773 188.321 269.903 105.163 269.537C36.1218 269.257 41.3622 269.116 37.1814 271.138C34.6328 272.374 31.8265 275.015 30.7383 277.206C29.822 279.031 29.4211 281.222 29.4211 284.537C29.4211 286.784 32.2847 309.17 39.0141 359.279C40.0163 366.835 41.9063 380.879 43.1663 390.457C46.2016 413.405 48.8075 432.505 49.3516 435.82C50.5829 443.684 51.5279 445.959 54.7637 449.19C56.7396 451.156 57.1692 451.409 62.524 453.824C63.6408 454.33 64.7576 454.358 86.0627 454.358C98.3761 454.358 109.143 454.274 110.031 454.189C111.033 454.077 111.606 454.105 111.606 454.302C111.606 454.442 110.231 457.841 108.57 461.829C106.91 465.846 103.616 473.767 101.24 479.497L96.9729 489.889L96.8011 493.4C96.5434 499.102 97.4024 501.911 100.266 504.804C101.154 505.703 101.87 506.461 101.87 506.518C101.87 506.574 99.5501 506.574 96.6865 506.546L91.5035 506.461L90.5585 503.625C88.869 498.569 86.7213 495.17 82.8841 491.518C80.1351 488.906 77.7869 487.277 74.5511 485.788C68.3085 482.923 61.4359 482.081 54.2769 483.261C48.5211 484.244 42.9658 486.463 39.5295 489.159C38.6132 489.861 37.0382 491.041 36.0073 491.743C32.6856 494.075 30.0224 497.052 28.3615 500.282C28.0466 500.9 27.5025 502.529 27.1875 503.905C26.8439 505.254 26.5575 506.405 26.5002 506.461C26.443 506.489 24.3239 506.63 21.7467 506.77C17.9668 506.967 17.0218 506.939 16.7068 506.63C16.1627 506.124 15.2464 506.461 14.8168 507.388C14.4159 508.231 13.7859 523.146 14.0723 524.719C14.3014 525.842 14.8455 526.348 15.905 526.32C16.3345 526.32 16.8213 526.432 17.0218 526.601C18.0813 527.443 23.4362 527.471 109.029 527.415C156.507 527.387 244.132 527.247 303.752 527.078C363.372 526.91 450.024 526.685 496.328 526.573C576.279 526.404 580.574 526.376 581.319 525.898C582.206 525.337 582.378 523.988 581.691 523.033C581.376 522.556 581.347 521.798 581.576 518.68C581.72 516.601 581.805 513.203 581.748 511.152C581.576 505.815 582.235 506.209 573.043 506.096L565.741 506.012L565.913 504.692C566.571 499.13 568.891 460.032 569.12 450.425C569.263 445.061 569.378 443.488 569.664 443.319C570.294 442.982 570.151 441.774 569.492 441.578C569.177 441.493 568.919 441.241 568.919 441.044C568.919 440.819 569.263 435.932 569.664 430.174C570.093 424.388 570.437 416.944 570.466 413.63L570.494 407.591L568.833 401.833C565.397 390.036 563.965 386.441 562.906 387.087C562.362 387.424 561.646 389.053 559.87 394.109C558.152 399.052 558.095 399.108 557.895 397.957C557.78 397.311 557.58 396.721 557.436 396.608C557.293 396.524 557.293 396.271 557.436 395.991C558.324 394.277 558.782 389.895 558.668 383.576C558.61 379.531 557.494 377.171 555.117 375.936C552.654 374.672 547.643 375.318 543.376 377.424C542.489 377.874 541.601 378.492 541.429 378.772C540.828 379.896 541.257 387.873 541.973 388.772C542.202 389.025 542.718 395.71 542.632 396.777C542.603 397.002 542.489 398.041 542.403 399.052C542.317 400.063 542.374 401.777 542.546 402.844C542.718 403.911 542.889 407.9 542.975 411.664C543.033 415.456 543.233 421.073 543.376 424.163C543.548 427.253 543.749 432.73 543.834 436.325L544.006 442.87L543.262 442.785C542.574 442.701 542.403 442.392 541.429 439.752C538.966 432.983 528.457 406.973 527.226 404.586C526.853 403.855 526.538 402.956 526.538 402.563C526.538 402.029 525.164 400.485 520.754 396.131C514.11 389.615 513.509 389.081 513.137 389.558C512.02 390.991 512.249 405.203 513.423 408.855C513.738 409.866 515.857 415.484 518.091 421.354C520.954 428.826 522.902 433.46 524.62 436.859L527.082 441.662L526.052 441.859C524.362 442.168 522.816 442.87 522.501 443.46C522.272 443.881 522.3 444.246 522.615 444.92C522.844 445.398 523.245 447.364 523.503 449.302C523.99 452.757 526.968 468.599 531.807 493.372C533.153 500.254 534.213 505.9 534.184 505.956C534.127 506.012 523.532 506.012 510.617 505.984L487.164 505.9L489.312 505.085C498.676 501.602 505.606 494.215 508.899 484.3C512.02 474.918 511.934 462.363 508.641 449.527C500.823 419.023 475.996 385.795 446.616 366.526C441.347 363.043 435.018 359.476 427.774 355.852C421.703 352.819 409.933 348.746 407.242 348.746C406.755 348.746 406.612 348.634 406.726 348.325C406.955 347.763 413.083 347.763 417.866 348.325C428.031 349.533 436.679 350.094 446.788 350.207C450.883 350.235 453.002 350.151 453.403 349.926C454.29 349.448 454.777 348.1 454.434 347.117C454.262 346.64 454.262 345.713 454.405 344.786C454.892 341.612 455.522 332.539 455.522 328.635V324.59H465.201C470.498 324.59 479.633 324.534 485.446 324.45C491.288 324.366 504.861 324.169 515.657 324.029C574.933 323.214 576.995 323.158 578.226 322.624C578.856 322.343 579.658 322.034 580.001 321.95C581.634 321.444 583.466 318.299 584.24 314.647C585.356 309.254 585.5 295.435 584.555 285.632C583.982 279.79 583.295 277.767 581.147 275.52C579.686 273.975 579.028 273.947 563.049 274.593C542.259 275.408 526.71 275.942 514.655 276.279C502.971 276.588 483.699 277.29 479.003 277.571L475.996 277.739L477.285 276.672C478.001 276.054 481.666 272.852 485.446 269.537C489.226 266.195 496.757 259.622 502.198 254.903C527.97 232.517 557.866 205.384 558.553 203.755C558.782 203.249 558.954 201.901 558.983 200.749C559.011 198.896 558.897 198.39 558.152 196.901C556.119 192.941 542.002 176.257 537.764 172.802C534.728 170.358 531.435 169.572 529.144 170.779C528.6 171.06 525.823 173.532 522.988 176.257C520.124 178.981 512.335 186.34 505.634 192.576C494.008 203.418 481.179 215.496 475.767 220.636L473.247 223.051L475.452 218.557C479.146 210.945 501.453 164.038 503.601 159.347C505.291 155.64 505.634 154.657 505.634 153.449C505.606 151.005 505.062 150.359 500.909 147.719C494.18 143.478 483.127 138.534 476.197 136.68C472.961 135.838 471.73 135.697 470.412 136.09ZM477.457 139.236C479.977 140.163 493.865 146.567 496.872 148.196C500.738 150.303 502.255 151.511 502.742 152.887L503.172 154.039L500.423 159.741C497.444 165.948 483.184 196.452 476.512 210.974C471.672 221.479 470.412 224.372 470.412 225.102C470.412 225.551 461.277 234.82 461.02 234.596C460.991 234.54 462.967 230.411 465.458 225.439C470.613 215.046 470.527 215.636 467.406 214.007C464.8 212.659 453.259 207.659 449.394 206.199C446.072 204.991 445.929 204.963 445.241 205.412C444.296 206.002 444.039 206.311 442.492 208.923C440.173 212.827 433.758 226.984 433.758 228.22C433.758 228.669 433.988 229.203 434.274 229.456C435.276 230.354 451.312 237.264 454.605 238.219L456.696 238.837L446.215 248.921C438.77 256.139 435.763 259.201 435.763 259.65C435.763 261.195 436.336 260.746 450.367 247.966C470.813 229.315 488.224 213.221 508.498 194.121C524.992 178.588 530.318 173.729 531.292 173.307C532.466 172.83 534.728 173.167 535.96 174.009C537.191 174.88 547.042 185.919 551.251 191.143C556.491 197.604 556.864 198.306 556.892 200.918C556.892 202.968 558.152 201.648 546.727 211.591C534.757 221.984 516.745 238.275 500.193 253.668C495.554 257.993 488.596 264.425 484.73 267.965C476.082 275.885 475.194 276.756 475.366 277.262C475.509 277.543 474.965 277.683 472.904 277.795C470.412 277.964 449.48 278.863 447.103 278.919L445.986 278.947L444.354 275.436C438.884 263.751 431.553 254.257 423.077 247.938L420.328 245.887L421.216 244.623C422.991 242.067 426.37 234.792 447.074 189.065C471.3 135.472 469.525 139.292 470.527 138.787C471.73 138.197 475.166 138.422 477.457 139.236ZM444.926 141.877C446.415 142.27 450.281 143.421 453.517 144.405C456.753 145.416 460.103 146.371 460.962 146.567C461.822 146.736 462.595 146.932 462.652 146.989C462.709 147.017 462.137 148.421 461.392 150.106L460.046 153.168L458.156 152.494C455.693 151.623 447.962 149.432 446.473 149.18C445.47 149.039 445.184 149.123 444.411 149.741C443.638 150.387 443.151 151.623 440.03 160.92C438.111 166.65 436.479 171.959 436.393 172.661C436.278 173.897 436.336 174.009 437.367 174.768C438.025 175.273 440.287 176.172 443.323 177.183C446.96 178.363 448.191 178.897 448.134 179.206C448.105 179.431 447.733 180.329 447.332 181.2C446.73 182.492 446.501 182.745 446.043 182.604C439.085 180.442 435.276 179.796 434.217 180.61C433.644 181.06 432.928 183.279 429.578 194.682C428.232 199.205 427.344 202.744 427.258 203.98C427.115 205.89 427.115 205.974 427.888 206.564C428.318 206.901 429.979 207.575 431.553 208.08C433.157 208.586 434.503 209.007 434.56 209.035C434.589 209.064 434.131 210.187 433.529 211.563C432.67 213.53 432.298 214.063 431.868 214.007C431.582 213.979 430.15 213.558 428.719 213.052C426.084 212.153 425.254 212.125 424.251 212.855C423.936 213.08 422.676 216.788 420.758 223.136C419.126 228.585 417.493 233.613 417.15 234.287L416.52 235.551L417.121 236.506C417.493 237.067 418.381 237.798 419.441 238.331C420.386 238.837 421.159 239.343 421.159 239.455C421.159 239.567 420.844 240.41 420.471 241.337C420.099 242.236 419.698 243.472 419.584 244.061C419.469 244.623 419.297 245.101 419.24 245.101C419.154 245.101 418.352 244.679 417.465 244.146C416.577 243.612 414.887 242.713 413.713 242.151C412.539 241.562 411.537 241.056 411.48 241.028C411.423 240.972 411.537 240.663 411.709 240.326C412.253 239.343 414.114 233.107 416.863 223.051C419.985 211.62 426.027 190.216 429.291 178.953C430.609 174.318 432.699 166.987 433.902 162.662C435.104 158.336 436.765 152.466 437.624 149.601C438.483 146.736 439.314 143.871 439.486 143.197C439.743 142.242 440.001 141.905 440.717 141.596C441.92 141.062 441.776 141.062 444.926 141.877ZM421.302 151.567C421.445 151.82 421.101 154.123 420.701 155.527C420.586 155.949 420.128 155.977 416.921 155.865C414.916 155.808 413.112 155.865 412.94 155.977C412.711 156.145 412.511 157.269 412.425 159.038C412.339 160.555 411.967 163.533 411.594 165.611C410.993 168.785 410.678 171.987 410.163 179.655C410.077 180.638 410.649 182.155 411.251 182.52C411.423 182.633 412.368 182.801 413.341 182.913C414.515 183.026 415.145 183.222 415.145 183.447C415.145 183.981 414.315 188.138 414.2 188.278C414.143 188.334 413.312 188.166 412.368 187.941C410.134 187.379 409.218 187.66 408.988 188.98C407.872 195.525 405.982 210.271 405.982 212.575C405.982 214.597 406.154 214.85 407.7 215.243C408.616 215.496 408.702 215.608 408.616 216.479C408.588 217.013 408.416 218.108 408.244 218.923C407.958 220.327 407.929 220.383 407.184 220.186C406.755 220.074 406.096 219.99 405.724 220.018C404.464 220.074 404.636 219.288 403.233 231.815C402.717 236.674 402.775 237.236 404.006 237.236C404.407 237.236 404.55 237.433 404.55 238.022V238.809L402.259 238.388L399.94 237.966L400.111 236.393C400.226 235.551 400.541 233.023 400.856 230.776C401.572 225.355 402.431 217.771 404.836 195.104C405.953 184.683 407.385 171.341 408.015 165.471C408.616 159.6 409.218 154.572 409.303 154.292C409.475 153.786 411.394 152.719 413.255 152.129C415.603 151.398 420.958 151.005 421.302 151.567ZM451.226 209.766C452.572 210.384 456.696 212.153 460.39 213.698C464.084 215.243 467.148 216.535 467.205 216.591C467.234 216.619 466.89 217.265 466.432 218.024C465.63 219.288 463.11 224.905 459.559 233.247C458.758 235.157 458.185 236.843 458.271 237.011C458.385 237.18 458.185 237.124 457.784 236.871C457.412 236.618 456.953 236.393 456.753 236.393C456.553 236.393 454.691 235.579 452.601 234.596C448.363 232.601 439.858 229.006 437.596 228.304L436.164 227.826L440.03 220.102C442.177 215.833 444.382 211.142 444.926 209.681L445.929 206.985L447.36 207.828C448.134 208.277 449.88 209.176 451.226 209.766ZM99.1492 272.655C113.324 272.824 149.92 272.992 180.475 273.077C211.029 273.161 237.718 273.329 239.808 273.47C243.101 273.694 247.712 274.256 253.868 275.127C258.078 275.745 261.772 278.441 263.662 282.289C264.435 283.891 264.807 285.014 264.836 285.969C265.008 290.267 279.927 422.618 281.76 436.241C282.991 445.341 282.991 446.1 281.616 448.824C280.614 450.819 280.385 451.071 278.152 452.504L275.775 454.077L256.188 453.796C245.421 453.656 221.882 453.431 203.899 453.347C175.435 453.178 171.168 453.094 171.168 452.729C171.168 452.504 172.772 444.976 174.748 435.988C179.072 416.102 181.048 406.467 181.477 403.013L181.792 400.4L180.561 398.996C179.902 398.238 178.785 397.142 178.069 396.552L176.781 395.513L156.593 395.316C142.017 395.148 136.318 395.176 136.032 395.401C135.832 395.569 135.66 395.962 135.66 396.271C135.66 396.552 135.345 397.423 134.944 398.181C134.314 399.417 122.917 426.888 115.042 446.156L112.35 452.729L111.205 452.588C109.773 452.42 94.0234 451.942 77.9301 451.549C64.8149 451.24 63.3259 451.071 60.0041 449.414C58.1141 448.487 55.1074 445.482 53.7329 443.179C52.7879 441.606 52.6447 441.1 52.4729 438.825C52.2724 435.848 49.5807 414.641 45.4571 383.435C43.8821 371.526 41.4481 352.903 40.0163 342.005C38.5845 331.107 36.265 313.467 34.8332 302.822C32.5137 285.379 32.3133 283.244 32.571 281.587C32.9719 278.947 33.4874 277.908 35.3773 276.054C37.0955 274.312 39.1286 273.189 41.7345 272.515C43.4526 272.065 45.4858 272.065 99.1492 272.655ZM403.949 278.301C402.402 281.306 400.942 285.07 400.111 288.216L399.453 290.744L398.479 290.716C397.964 290.688 389.029 289.199 378.635 287.43C368.24 285.66 357.874 283.919 355.583 283.582C353.292 283.216 351.402 282.907 351.345 282.879C351.287 282.823 351.602 281.475 352.032 279.846L352.805 276.925L354.552 277.29C359.907 278.469 385.708 283.919 388.371 284.452C394.098 285.604 393.668 285.66 396.961 282.936C398.536 281.615 400.999 279.537 402.402 278.273C403.834 277.037 405.008 275.998 405.065 275.998C405.094 275.998 404.607 277.037 403.949 278.301ZM579.171 277.206C579.916 277.795 580.889 279.509 581.347 281.026C582.178 283.778 582.521 289.536 582.493 300.434C582.493 309.142 582.407 311.305 582.006 313.018C581.433 315.546 579.973 318.27 578.656 319.282L577.653 320.068L563.335 320.349C555.461 320.518 544.579 320.714 539.138 320.798C533.697 320.883 525.966 320.995 521.957 321.079C490.228 321.725 472.732 322.119 465.258 322.343C460.447 322.512 456.323 322.624 456.066 322.624C455.665 322.624 455.55 322.175 455.378 319.872C454.405 305.378 451.999 293.778 447.876 283.497C447.332 282.121 446.931 280.969 446.988 280.941C447.074 280.857 459.015 280.492 480.721 279.93C494.18 279.565 505.548 279.172 518.091 278.666C527.827 278.245 543.233 277.739 564.624 277.121C570.38 276.953 575.219 276.756 575.362 276.7C575.906 276.475 578.77 276.868 579.171 277.206ZM348.739 284.593C349.14 284.705 349.14 284.986 348.51 287.458C347.651 290.941 346.792 295.744 346.534 298.609L346.333 300.828L345.503 299.845C343.241 297.204 343.269 291.053 345.589 285.604C346.219 284.115 346.247 284.087 347.25 284.284C347.822 284.368 348.481 284.508 348.739 284.593ZM359.735 286.643C364.002 287.402 368.698 288.272 370.187 288.525C371.676 288.778 372.936 289.003 372.993 289.059C373.022 289.087 372.85 289.48 372.621 289.958C372.392 290.407 372.077 291.474 371.905 292.289C370.96 297.232 372.678 303.019 376.258 306.754C381.928 312.737 390.633 311.979 395.931 305.069L396.561 304.226L396.417 305.518C396.102 308.243 397.248 309.872 399.424 309.788C400.283 309.732 401.142 309.282 403.548 307.625C407.328 304.985 408.588 304.479 410.248 304.929C411.823 305.35 412.167 306.136 411.738 308.412C411.394 310.322 410.134 313.046 408.015 316.445C405.495 320.489 405.065 322.428 404.521 332.736C404.092 341.05 404.292 345.741 405.094 346.808C406.068 348.1 405.667 349.111 403.72 350.122C399.711 352.201 394.327 353.1 386.91 352.875C380.066 352.679 376.659 351.92 373.051 349.814L371.476 348.887L371.247 344.14C371.132 341.415 370.903 339.224 370.731 339C370.559 338.803 370.101 338.634 369.757 338.634C368.612 338.634 365.262 337.483 362.942 336.331C360.365 335.011 357.043 332.09 355.125 329.478C351.259 324.169 348.853 316.417 348.281 307.569L348.109 304.479L349.913 304.592C356.299 304.985 364.145 299.564 367.867 292.177C369.042 289.817 369.156 289.34 368.583 288.806C367.782 287.991 367.238 288.413 365.748 291.081C363.887 294.395 362.226 296.474 359.735 298.524C356.184 301.474 352.433 302.822 349.397 302.288L348.338 302.092L348.51 298.946C348.682 295.659 349.254 291.587 349.999 288.076C350.657 284.986 350.686 284.93 351.373 285.098C351.717 285.154 355.497 285.857 359.735 286.643ZM386.366 291.306C392.351 292.345 397.276 293.216 397.334 293.272C397.391 293.328 397.305 293.581 397.162 293.89C396.99 294.171 396.732 295.266 396.561 296.305C395.931 299.929 394.556 302.625 392.065 305.013C390.118 306.923 388.199 307.794 385.822 307.962C383.044 308.131 381.04 307.372 378.778 305.294C375.599 302.429 373.91 297.766 373.91 291.98V289.115L374.711 289.283C375.141 289.368 380.381 290.267 386.366 291.306ZM372.048 350.965C375.084 353.044 379.98 354.448 385.937 354.926C393.468 355.544 402.087 353.83 405.438 351.077L406.297 350.375L408.988 351.386C410.478 351.948 412.912 352.707 414.372 353.072C420.701 354.701 432.584 360.431 440.746 365.824C452.658 373.66 458.528 378.351 467.406 387.058C480.463 399.867 489.827 412.563 497.33 427.534C503.544 439.949 507.037 451.268 508.211 462.756C509.758 478.233 505.004 491.547 495.411 498.512C487.565 504.186 476.082 505.984 463.482 503.484C437.023 498.26 407.614 476.576 387.254 447.28C380.152 437.055 373.766 424.725 370.216 414.248C369.442 412.057 368.641 410.035 368.412 409.754C368.154 409.501 367.896 409.023 367.782 408.686C367.638 408.181 367.782 408.04 368.812 407.759C370.617 407.226 372.507 406.243 376.344 403.799C378.234 402.619 380.983 400.906 382.443 400.007C387.598 396.917 391.148 393.547 392.237 390.766C392.466 390.12 392.666 390.008 393.182 390.148C393.525 390.232 395.358 390.654 397.248 391.047C405.524 392.788 413.713 396.159 423.936 402.001C434.274 407.928 441.92 413.433 453.66 423.32C469.381 436.606 484.272 448.178 485.589 448.178C486.591 448.178 486.534 447.56 485.503 446.662C483.585 445.033 476.311 439.05 470.412 434.247C467.205 431.634 461.449 426.916 457.669 423.77C440.173 409.164 431.439 403.181 418.267 396.637C410.277 392.676 404.922 390.71 397.792 389.165C392.781 388.042 391.75 387.929 391.263 388.351C390.919 388.603 390.347 387.676 387.913 382.958C386.309 379.84 384.734 376.919 384.419 376.497C384.047 375.992 383.932 375.598 384.104 375.458C384.362 375.205 391.435 372.34 391.778 372.34C392.007 372.34 405.896 366.498 407.156 365.88C409.017 364.925 409.275 362.369 407.643 360.431C406.125 358.605 405.38 358.605 399.968 360.347C397.362 361.189 394.212 362.257 392.952 362.734C387.769 364.728 386.194 365.318 382.558 366.807C378.72 368.38 373.91 369.868 372.707 369.868C372.335 369.868 370.702 369.784 369.042 369.672C366.493 369.503 365.663 369.56 363.458 370.093C362.054 370.43 359.706 370.852 358.275 371.048C354.151 371.638 352.318 372.762 351.144 375.514C350.915 376.076 350.715 376.919 350.715 377.396C350.715 378.014 350.543 378.323 350.085 378.492C348.08 379.25 337.456 383.856 334.535 385.261C331.271 386.834 327.004 389.783 323.196 393.097C321.163 394.867 321.449 394.979 328.006 395.204L333.676 395.401L335.967 394.53C337.227 394.052 340.291 392.76 342.754 391.693C346.877 389.923 352.404 387.929 352.633 388.182C352.691 388.21 352.92 388.968 353.149 389.867C354.323 394.277 357.129 397.62 359.678 397.62C360.279 397.62 360.394 397.816 360.68 399.333C361.109 401.608 362.427 404.305 363.83 405.821C364.689 406.748 364.947 407.282 364.975 408.068C365.004 408.658 365.29 409.669 365.634 410.316C365.949 410.99 366.98 413.658 367.896 416.298C373.451 432.168 382.099 446.83 394.785 461.801C398.766 466.492 408.874 476.547 413.284 480.255C427.373 492.052 443.208 500.984 456.753 504.804C458.672 505.338 460.275 505.843 460.361 505.9C460.418 505.984 440.975 506.04 417.121 506.04C383.073 506.012 373.938 505.956 374.54 505.675C375.599 505.226 376.315 504.214 377.604 501.49C380.811 494.721 381.756 489.159 382.214 474.553C382.5 465.649 382.414 463.795 381.67 461.857C381.498 461.408 381.441 460.93 381.527 460.79C381.813 460.341 381.097 459.779 380.066 459.582C379.522 459.47 376.888 459.526 374.253 459.695C370.617 459.947 368.097 459.947 364.145 459.695C361.253 459.526 356.442 459.273 353.435 459.133C350.228 458.992 347.336 458.711 346.419 458.459C344.329 457.869 342.897 457.897 342.153 458.487C341.322 459.161 341.007 462.869 341.637 464.779L342.038 466.071L341.007 465.705C340.434 465.509 339.633 465.34 339.203 465.312C338.688 465.312 338.401 465.172 338.401 464.891C338.401 463.852 337.514 462.812 336.053 462.11C333.848 461.099 330.498 460.706 325.401 460.902C319.129 461.155 316.495 461.97 312.973 464.75L311.169 466.155L306.558 463.571C302.492 461.296 293.758 457.363 289.52 455.903C288.69 455.594 288.002 455.313 288.031 455.229C288.031 455.116 288.919 454.639 290.007 454.133C292.784 452.841 294.703 451.071 295.476 449.077C296.049 447.617 296.078 447.28 295.791 445.229C295.619 443.993 294.818 437.168 294.016 430.033L292.555 417.113L294.445 413.77C297.051 409.22 300.688 403.996 305.957 397.254C311.083 390.738 311.942 389.53 311.655 389.277C311.283 388.912 310.51 389.615 307.961 392.592C302.292 399.164 296.822 406.692 293.701 412.141C292.326 414.557 292.326 414.557 292.183 413.602C292.097 413.068 291.124 404.81 290.007 395.232C288.89 385.654 287.916 377.537 287.859 377.2C287.716 376.666 288.088 376.357 290.465 374.981C293.959 372.958 310.94 364.785 316.008 362.678C329.152 357.201 343.441 353.493 361.453 350.881C370.13 349.617 370.072 349.617 372.048 350.965ZM400.541 362.116C401.772 363.127 402.259 364.195 402.259 365.824C402.259 367.312 402.001 367.678 400.77 367.987C400.054 368.155 399.997 368.099 399.825 367.088C399.539 365.29 398.794 363.633 398.021 362.931C397.276 362.257 397.276 362.229 397.821 361.835C398.68 361.189 399.539 361.302 400.541 362.116ZM396.732 363.408C397.248 363.914 397.906 365.009 398.25 365.852C398.966 367.65 398.68 369.082 397.534 369.363C397.162 369.447 396.675 369.616 396.417 369.7C396.045 369.84 395.959 369.644 395.959 368.633C395.959 366.975 395.243 364.981 394.356 364.167L393.64 363.521L394.585 363.015C395.816 362.397 395.702 362.369 396.732 363.408ZM370.473 371.638C376.687 372.453 380.525 373.857 381.956 375.795C382.414 376.441 383.646 378.66 384.677 380.739C386.824 385.036 389.573 389.755 389.974 389.755C390.805 389.755 387.569 393.378 385.221 395.064C384.448 395.653 382.644 396.777 381.212 397.62C379.809 398.434 376.773 400.26 374.482 401.636C372.191 403.041 369.385 404.557 368.268 405.007L366.178 405.821L365.605 405.175C364.317 403.602 362.828 400.288 362.284 397.62L362.083 396.637L362.684 397.339L363.286 398.041L363.314 397.114C363.314 396.412 363.2 396.215 362.77 396.215C361.969 396.215 361.854 395.597 362.054 392.03C362.226 389.249 362.169 388.716 361.797 388.407C361.424 388.098 361.31 388.126 361.052 388.575C360.623 389.334 360.164 392.423 360.164 394.446C360.164 396.131 360.136 396.215 359.477 396.215C357.845 396.215 355.955 393.575 355.01 389.867C354.122 386.497 354.38 383.688 355.697 382.48C356.986 381.3 360.909 380.767 363.229 381.469C364.03 381.722 364.431 380.963 363.858 380.289C362.942 379.222 357.96 377.649 354.18 377.256L352.376 377.059L353.607 375.823C355.182 374.25 356.843 373.604 359.449 373.632C361.081 373.632 362.369 373.913 366.178 375.121C372.277 377.059 372.191 377.031 372.191 376.329C372.191 375.43 370.531 374.391 366.693 372.902C363.343 371.582 363.257 371.526 364.345 371.413C366.55 371.189 367.495 371.245 370.473 371.638ZM332.817 387.48C332.56 387.929 333.218 391.468 333.734 392.311C333.991 392.732 334.507 393.238 334.908 393.463L335.595 393.828L334.936 393.996C334.02 394.249 331.357 394.305 329.782 394.081C328.579 393.912 328.493 393.856 328.092 392.564L327.634 391.216L330.183 389.221C332.645 387.283 333.19 386.946 332.817 387.48ZM550.478 389.221L556.892 389.165V390.541C556.892 391.3 556.806 392.845 556.721 393.996L556.52 396.075H550.764C547.614 396.075 544.837 395.962 544.665 395.85C544.464 395.71 544.293 395.148 544.293 394.558C544.293 393.603 543.949 391.272 543.548 389.53C543.462 389.053 543.519 388.94 543.749 389.081C543.949 389.193 546.984 389.249 550.478 389.221ZM565.197 396.384C565.197 396.468 565.855 398.799 566.629 401.608C567.545 404.81 567.974 406.804 567.803 406.973C567.545 407.226 558.21 407.142 557.923 406.861C557.837 406.804 558.553 404.389 559.498 401.496L561.216 396.271H563.192C564.309 396.243 565.197 396.299 565.197 396.384ZM175.063 397.423C174.318 399.951 172.142 409.613 164.868 442.982C160.287 463.992 155.848 484.272 154.989 488.064C153.099 496.602 153.013 497.164 153.414 499.327C153.815 501.434 154.388 502.613 156.02 504.636L157.223 506.124L153.815 505.956C149.835 505.731 128.701 505.282 114.183 505.085L104.017 504.973L102.528 503.653C100.667 502.023 99.6933 500.085 99.2638 497.192C98.6911 493.12 98.9488 492.08 103.301 481.463C104.762 477.896 107.139 471.969 108.599 468.261C110.059 464.554 114.613 453.234 118.707 443.123C130.964 412.815 136.204 399.642 136.576 398.322L136.92 397.086L140.356 397.002C142.275 396.946 150.894 396.889 159.513 396.861L175.235 396.805L175.063 397.423ZM556.262 401.187C556.176 403.097 556.062 404.698 555.976 404.782C555.833 404.923 544.55 405.541 544.436 405.428C544.407 405.372 544.264 403.631 544.178 401.552L543.978 397.76L550.192 397.732L556.406 397.704L556.262 401.187ZM522.157 400.709C523.646 402.254 525.078 403.518 525.336 403.546C525.765 403.546 525.765 403.574 525.393 403.743C525.135 403.855 524.333 404.361 523.589 404.866C521.842 406.074 518.921 407.142 516.802 407.366L515.113 407.535L514.97 406.58C514.884 406.046 514.74 404.361 514.655 402.788L514.483 399.979L515.943 399.614C516.716 399.417 517.776 398.968 518.291 398.603C518.807 398.238 519.294 397.929 519.351 397.929C519.408 397.901 520.697 399.164 522.157 400.709ZM561.99 409.613C564.08 409.726 565.97 409.641 567.258 409.417C568.347 409.248 569.292 409.136 569.378 409.192C569.435 409.276 569.378 409.95 569.234 410.709C568.833 412.759 568.404 418.405 567.659 430.567C567.316 436.55 566.886 441.55 566.743 441.69C566.371 442.027 562.476 442.561 558.782 442.757L555.69 442.926L555.861 440.988C556.463 434.584 557.465 416.326 557.465 411.973C557.465 409.108 557.465 409.08 558.124 409.248C558.467 409.361 560.214 409.529 561.99 409.613ZM534.442 444.527C539.109 445.229 550.134 445.763 555.174 445.51C559.269 445.341 565.454 444.667 566.915 444.246C567.688 444.021 567.774 444.049 567.659 444.471C567.087 446.353 564.424 478.401 563.335 496.631C563.078 500.788 562.82 504.636 562.734 505.113L562.591 506.04H549.905H537.191L536.017 499.917C529.316 465.677 525.364 446.437 524.677 444.752C524.563 444.443 524.648 444.246 525.021 444.162C526.309 443.825 531.063 444.021 534.442 444.527ZM197.456 455.959C205.359 456.043 211.831 456.155 211.831 456.184C211.831 456.24 211.573 456.83 211.23 457.56C209.912 460.537 208.681 467.952 208.681 473.149C208.681 475.93 209.311 480.339 209.941 482.137C210.199 482.811 210.399 483.401 210.399 483.457C210.399 483.513 201.723 483.57 191.156 483.598C180.561 483.626 170.223 483.71 168.161 483.822C166.128 483.935 164.41 483.991 164.353 483.963C164.296 483.935 165.47 478.289 166.987 471.464C168.476 464.61 169.88 458.178 170.08 457.195L170.452 455.397L176.752 455.566C180.217 455.678 189.524 455.846 197.456 455.959ZM286.742 456.689C287.515 457.195 290.35 458.599 293.014 459.807C301.805 463.795 309.479 467.728 309.479 468.233C309.479 468.374 309.193 468.879 308.82 469.357C307.704 470.846 306.071 474.637 305.298 477.559C304.64 480.087 304.582 480.705 304.697 484.412C304.926 490.788 306.558 495.704 309.135 497.895L310.424 498.962L309.307 499.271C308.706 499.439 307.503 499.58 306.701 499.58C305.27 499.58 305.184 499.524 305.184 498.878C305.184 497.614 305.384 497.67 283.85 490.985C269.36 486.463 263.204 484.693 262.03 484.693C261.657 484.693 260.999 484.468 260.598 484.187C259.882 483.738 258.164 483.71 236.83 483.626L213.836 483.57L213.406 482.699C212.289 480.592 211.774 477.643 211.631 472.475C211.487 467.054 211.774 464.301 213.034 458.992L213.692 456.24L228.583 456.436C236.773 456.521 251.663 456.689 261.657 456.745C278.753 456.886 279.984 456.886 282.275 456.38C283.621 456.071 284.852 455.818 285.024 455.79C285.225 455.79 285.998 456.184 286.742 456.689ZM334.793 463.43C336.053 463.824 336.654 464.273 336.683 464.779C336.683 465.144 335.022 465.593 331.557 466.155C329.581 466.464 327.319 467.026 326.517 467.391C324.942 468.093 323.682 469.413 323.367 470.705C323.253 471.155 323.052 471.492 322.909 471.492C322.766 471.492 322.652 471.604 322.652 471.772C322.652 472.306 325.544 473.458 328.006 473.879C330.698 474.357 332.273 474.272 335.08 473.542C336.683 473.093 336.769 473.093 337.17 473.626C337.399 473.907 337.542 474.609 337.485 475.143C337.37 476.379 336.196 477.081 333.046 477.783C328.092 478.879 326.861 479.384 328.465 479.693C329.639 479.918 333.934 479.384 335.624 478.823L337.256 478.261V479.412C337.256 481.126 335.652 482.502 331.872 484.103C330.269 484.777 328.951 485.423 328.951 485.564C328.951 485.676 329.181 485.901 329.438 486.069C329.782 486.238 329.896 486.631 329.868 487.474C329.782 488.682 330.469 490.535 331.557 492.024C332.302 493.063 332.416 492.979 328.522 494.496C323.997 496.265 319.33 497.361 315.464 497.529L312.142 497.698L311.426 496.743C307.704 491.912 306.444 483.654 308.276 476.547C309.622 471.435 310.195 470.228 312.171 468.205C315.178 465.087 318.041 463.627 322.079 463.065C324.971 462.672 333.132 462.925 334.793 463.43ZM330.211 469.16C329.839 469.862 329.524 470.874 329.524 471.407C329.524 472.503 329.295 472.559 326.346 471.885L324.312 471.435L325.286 470.452C326.575 469.104 328.436 468.233 330.698 467.868C330.813 467.84 330.584 468.43 330.211 469.16ZM341.007 472.39C341.637 472.98 341.694 473.261 341.723 476.126C341.78 479.609 343.098 489.356 343.728 490.816L344.128 491.771L343.069 491.575C340.291 491.069 337.599 488.822 336.998 486.519C336.483 484.525 336.597 483.766 337.542 482.867C338.688 481.8 339.089 480.48 338.859 478.486C338.774 477.474 338.831 476.547 339.031 476.154C339.289 475.592 339.232 475.255 338.831 474.413C338.258 473.233 338.43 472.699 339.575 472.138C339.948 471.941 340.263 471.772 340.291 471.772C340.32 471.772 340.635 472.053 341.007 472.39ZM63.3545 485.255C68.5948 485.845 73.7779 487.698 77.6437 490.423C79.8201 491.968 83.3709 495.535 84.8886 497.754C86.0627 499.467 88.1531 503.4 88.5254 504.551L88.7258 505.197H79.9919H71.2293V504.271C71.2293 503.091 70.4848 500.647 69.6257 498.99C67.9076 495.619 63.3545 491.238 59.8036 489.524C57.7705 488.541 57.5414 488.485 55.0787 488.541C53.647 488.569 52.1579 488.597 51.757 488.625C51.3561 488.653 49.9529 488.513 48.6071 488.288L46.173 487.895L49.3229 486.884C52.072 486.013 54.3342 485.536 57.6273 485.142C59.3741 484.946 60.8345 484.974 63.3545 485.255ZM169.307 486.378C171.827 486.519 192.702 486.687 215.697 486.8C238.691 486.884 257.534 486.996 257.562 487.052C257.591 487.081 257.19 488.232 256.646 489.608C256.131 491.013 254.756 494.861 253.611 498.175L251.52 504.214H238.921C231.962 504.242 224.087 504.327 221.395 504.439L216.499 504.664L216.184 501.321C215.783 497.305 215.439 496.265 214.437 495.872C213.95 495.704 205.932 495.619 191.356 495.676L169.021 495.76L167.245 494.973C164.267 493.653 163.723 492.614 163.723 488.401C163.723 485.985 163.78 485.788 164.238 485.957C164.496 486.069 166.787 486.266 169.307 486.378ZM47.8625 490.957C43.2808 494.271 39.7872 500.029 39.6727 504.439L39.6441 505.984L37.3246 506.152C36.0359 506.237 33.4014 506.377 31.4542 506.489L27.9034 506.658L28.1038 505.843C28.4761 504.383 30.137 500.844 31.2538 499.243C33.3155 496.181 36.7805 493.176 40.1881 491.49C41.6486 490.76 42.5076 490.535 45.6003 489.917C45.9153 489.861 46.9175 489.805 47.8625 489.777L49.5234 489.749L47.8625 490.957ZM55.8805 490.451C56.7969 490.676 58.2573 491.21 59.145 491.659C61.2068 492.642 65.4163 496.546 66.8767 498.821C67.9362 500.451 69.5112 504.186 69.5112 505.029C69.5112 505.31 67.1058 505.422 58.1428 505.591C51.8715 505.675 45.6003 505.843 44.1971 505.956L41.6486 506.124L41.8204 504.579C41.9922 502.782 42.9658 500.254 44.3403 497.979C45.6003 495.928 48.8648 492.53 50.8693 491.153C52.6733 489.917 53.3892 489.833 55.8805 490.451ZM335.595 495.395C339.489 497.979 341.494 498.821 344.157 498.962L346.362 499.074L346.534 500.451C346.792 502.332 347.679 504.242 348.739 505.226L349.626 506.04H327.835H306.043V504.945C306.043 504.355 305.957 503.512 305.871 503.063L305.699 502.248L307.961 502.22C310.71 502.22 313.574 501.209 313.717 500.254C313.803 499.72 314.061 499.608 315.722 499.439C320.561 498.934 331.672 495.31 332.531 493.962C332.617 493.822 332.76 493.681 332.846 493.681C332.932 493.681 334.163 494.468 335.595 495.395ZM270.649 498.203C272.711 499.018 278.409 501.04 283.277 502.698L292.154 505.731L287.286 505.534C284.623 505.422 278.066 505.338 272.739 505.338C266.411 505.338 263.118 505.254 263.204 505.057C263.261 504.888 263.977 503.287 264.779 501.49C265.58 499.692 266.296 497.866 266.411 497.473C266.497 497.08 266.669 496.771 266.755 496.771C266.84 496.771 268.616 497.417 270.649 498.203Z" fill="black"/>
<path d="M473.476 145.724C472.818 145.949 472.131 147.129 469.009 153.196C466.976 157.184 464.599 162.044 463.712 164.038C461.335 169.262 461.507 169.824 466.06 171.959C469.21 173.419 484.616 179.908 485.418 180.104C485.962 180.217 486.305 180.076 486.878 179.402C487.565 178.672 490.4 172.745 494.381 163.785C495.898 160.33 497.359 156.033 497.187 155.471C496.986 154.881 494.381 153.617 486.048 150.05C479.204 147.101 474.908 145.387 474.536 145.415C474.393 145.415 473.935 145.556 473.476 145.724ZM476.311 148.73C478.574 149.797 488.338 154.067 492.519 155.78L494.724 156.679L493.264 159.544C492.462 161.089 490.458 165.47 488.825 169.262C487.164 173.054 485.675 176.397 485.475 176.734C485.16 177.296 484.902 177.211 476.856 173.616C472.302 171.594 467.663 169.571 466.547 169.15C465.458 168.701 464.513 168.335 464.456 168.279C464.428 168.251 465.344 166.285 466.518 163.897C468.322 160.218 473.076 149.685 473.648 148.112C473.763 147.859 473.877 147.634 473.963 147.634C474.021 147.634 475.08 148.112 476.311 148.73Z" fill="black"/>
<path d="M459.473 174.796C458.528 175.049 455.665 180.358 450.797 190.863C447.074 198.924 447.332 198.081 448.449 199.092C448.935 199.542 452.658 201.536 456.667 203.502C469.009 209.541 471.386 210.384 472.56 209.26C473.19 208.642 475.223 204.598 477.714 199.036C478.86 196.48 480.492 192.941 481.322 191.171C482.582 188.531 482.84 187.66 482.869 186.396V184.852L481.437 184.093C479.032 182.801 465.83 176.65 463.54 175.751C461.134 174.824 460.189 174.599 459.473 174.796ZM464.17 178.644C466.575 179.796 471.243 181.902 474.564 183.307C477.857 184.711 480.607 185.919 480.664 185.975C480.721 186.031 480.263 187.127 479.633 188.419C476.855 194.036 471.844 204.401 471.844 204.485C471.844 204.57 471.586 205.187 471.3 205.89L470.727 207.154L464.628 204.401C461.277 202.884 456.724 200.918 454.519 200.019C452.314 199.149 450.424 198.334 450.31 198.222C450.167 198.109 451.799 194.374 453.918 189.908C456.037 185.413 458.185 180.582 458.7 179.178C459.244 177.745 459.702 176.566 459.731 176.566C459.788 176.566 461.764 177.493 464.17 178.644Z" fill="black"/>
<path d="M528.199 182.52C526.108 184.234 515.943 193.756 512.879 196.873C510.588 199.177 510.301 200.019 511.447 200.918C512.85 202.07 520.61 210.103 524.476 214.4C527.454 217.743 528.714 218.979 529.201 218.979C529.545 218.979 530.375 218.614 531.034 218.192C532.609 217.153 539.94 210.524 545.266 205.272C549.475 201.115 549.532 201.058 549.332 200.047C549.189 199.261 548.072 197.913 544.063 193.643C536.417 185.47 532.523 181.621 531.721 181.453C531.32 181.369 530.776 181.228 530.49 181.172C530.232 181.088 529.287 181.65 528.199 182.52ZM532.408 184.571C533.038 185.329 536.475 189.177 540.054 193.053C543.662 196.958 546.583 200.216 546.583 200.3C546.583 200.384 542.832 204.092 538.25 208.53L529.917 216.591L523.388 209.569C519.809 205.693 516.115 201.817 515.17 200.946L513.451 199.345L518.778 194.43C521.699 191.733 525.65 187.997 527.54 186.144C529.402 184.29 531.034 182.857 531.12 182.97C531.206 183.082 531.807 183.784 532.408 184.571Z" fill="black"/>
<path d="M505.004 203.867C504.804 204.064 503.286 205.44 501.625 206.9C494.638 213.108 487.536 219.653 486.878 220.495C486.477 221.001 486.162 221.787 486.162 222.209C486.162 223.473 489.283 227.236 496.471 234.567C498.275 236.421 500.623 238.865 501.654 239.988C503.028 241.421 503.744 242.011 504.231 242.011C505.033 241.983 507.753 239.792 515.656 232.798C522.758 226.478 524.534 224.708 524.534 223.894C524.534 223.051 523.531 221.843 516.172 213.782C509.557 206.535 506.522 203.53 505.834 203.53C505.577 203.53 505.204 203.698 505.004 203.867ZM513.709 214.934C516.458 218.164 519.379 221.563 520.181 222.461L521.641 224.147L519.723 225.832C516.945 228.304 508.641 236.056 506.636 238.022L504.947 239.736L502.77 237.432C501.568 236.168 499.22 233.612 497.53 231.73C495.869 229.849 493.149 226.955 491.488 225.27C489.827 223.585 488.452 222.012 488.452 221.759C488.452 221.534 489.512 220.439 490.829 219.315C492.118 218.22 496.07 214.709 499.62 211.479L506.063 205.637L507.381 207.35C508.097 208.305 510.96 211.704 513.709 214.934Z" fill="black"/>
<path d="M478.144 228.332C477.428 228.978 474.135 231.843 470.842 234.708C463.139 241.365 460.963 243.387 460.963 243.865C460.963 244.539 462.538 246.561 466.862 251.42C472.188 257.403 477.944 263.218 479.032 263.639C479.748 263.948 480.006 263.892 481.065 263.246C481.752 262.852 483.843 261.111 485.733 259.398C487.623 257.684 491.145 254.623 493.579 252.6C496.328 250.269 498.161 248.499 498.504 247.853L499.048 246.786L495.727 243.078C487.021 233.332 480.836 227.124 479.891 227.124C479.633 227.124 478.86 227.658 478.144 228.332ZM481.638 230.691C483.041 232.489 490.63 240.719 494.409 244.595L496.815 247.039L495.87 247.825C492.033 250.943 485.761 256.308 482.984 258.864L479.691 261.897L475.653 257.516C468.551 249.763 463.826 244.342 463.826 244.005C463.826 243.64 479.633 229.371 480.321 229.09C480.321 229.09 480.922 229.821 481.638 230.691Z" fill="black"/>
<path d="M145.683 333.466C143.048 334.168 141.817 334.927 139.583 337.202C134.171 342.763 132.367 351.808 135.116 359.813C139.096 371.554 150.178 377.284 159.943 372.705C162.492 371.497 165.642 368.239 167.102 365.318C168.906 361.695 169.307 359.925 169.278 355.487C169.25 352.51 169.135 351.218 168.62 349.448C166.415 341.499 160.459 335.151 153.557 333.438C151.438 332.904 147.744 332.932 145.683 333.466Z" fill="black"/>
<path d="M551.939 283.862C546.326 284.003 545.353 284.087 544.952 284.508C544.494 284.958 544.465 285.744 544.522 293.075C544.665 306.529 544.98 314.057 545.381 314.563C545.696 314.928 546.813 314.984 552.683 315.012C563.193 315.04 571.64 314.675 572.242 314.169C572.7 313.804 572.7 312.877 572.528 300.575C572.442 293.328 572.242 286.755 572.098 285.997C571.698 283.637 571.497 283.581 564.481 283.637C561.188 283.665 555.547 283.75 551.939 283.862ZM570.237 285.154C570.151 285.407 570.065 291.614 570.065 299.002V312.4L560.415 312.765C555.089 312.99 550.02 313.214 549.133 313.27L547.529 313.411L547.185 304.17C546.985 299.114 546.727 292.991 546.584 290.603C546.469 288.216 546.384 286.222 546.412 286.222C546.412 286.193 551.395 285.884 557.466 285.547C563.536 285.238 568.634 284.901 568.777 284.845C568.949 284.789 569.378 284.733 569.75 284.733C570.237 284.705 570.38 284.817 570.237 285.154Z" fill="black"/>
<path d="M528.4 284.593C523.675 284.79 518.034 284.958 515.857 284.986C511.934 285.042 511.906 285.042 511.619 285.745C511.161 286.924 510.818 293.974 510.732 303.805C510.646 314.395 510.617 314.338 512.679 315.013C515.371 315.855 538.737 315.602 539.539 314.704C539.797 314.423 539.826 311.389 539.682 302.401C539.425 287.739 539.11 284.93 537.563 284.453C537.248 284.34 533.125 284.424 528.4 284.593ZM537.248 287.289C537.134 287.795 537.048 293.722 537.105 300.463L537.162 312.709L526.624 312.878C520.84 312.99 515.457 313.159 514.683 313.299L513.309 313.552L513.481 311.558C513.824 307.401 514.282 291.503 514.139 289.284L513.967 286.952L518.32 286.924C522.358 286.868 534.814 286.559 536.647 286.447C537.42 286.391 537.449 286.419 537.248 287.289Z" fill="black"/>
<path d="M490.886 285.575C483.069 285.884 478.573 286.278 477.886 286.727C477.542 286.924 477.141 287.542 476.969 288.075C476.769 288.693 476.597 293.581 476.511 301.108C476.368 313.242 476.482 315.265 477.37 315.377C477.571 315.377 478.115 315.433 478.573 315.461C479.06 315.489 480.721 315.658 482.296 315.826C483.871 315.995 488.824 316.22 493.32 316.332L501.51 316.529L503.114 315.798C504.46 315.18 504.746 314.928 504.918 314.169C505.176 313.074 504.861 298.58 504.46 292.738C504.116 287.794 503.744 285.716 503.2 285.941C502.971 286.025 502.656 285.884 502.484 285.66C502.083 285.21 500.393 285.21 490.886 285.575ZM502.169 293.159C501.997 296.305 501.911 302.204 501.94 306.248L502.054 313.607L490.886 313.692C484.758 313.748 479.69 313.776 479.661 313.776C479.661 313.776 479.489 308.327 479.317 301.698C479.146 295.041 478.917 289.283 478.831 288.89L478.659 288.159L488.653 287.963C494.122 287.822 499.448 287.654 500.479 287.542C501.51 287.457 502.369 287.373 502.398 287.373C502.455 287.401 502.341 289.985 502.169 293.159Z" fill="black"/>
<path d="M356.499 292.654C355.297 293.918 356.013 295.94 357.645 295.94C359.105 295.94 359.907 293.272 358.676 292.457C357.788 291.84 357.215 291.896 356.499 292.654Z" fill="black"/>
<path d="M365.633 297.963C363.343 302.766 362.713 304.563 362.541 306.782C362.34 309.282 362.713 309.984 364.574 310.687C366.063 311.248 368.382 311.08 368.669 310.378C368.898 309.788 368.726 309.704 366.693 309.17L364.889 308.692L364.946 307.119C364.975 306.052 365.404 304.479 366.292 302.176C367.724 298.384 368.44 295.968 368.268 295.435C368.182 295.266 367.867 295.098 367.552 295.098C367.122 295.098 366.693 295.744 365.633 297.963Z" fill="black"/>
<path d="M382.443 317.99C381.355 318.917 380.181 319.675 379.494 319.844C377.489 320.377 377.06 320.63 377.06 321.22C377.06 321.585 377.403 321.95 378.033 322.259C379.637 322.989 381.384 322.372 383.417 320.321C385.049 318.72 385.593 317.681 385.249 316.866C384.963 316.136 384.304 316.389 382.443 317.99Z" fill="black"/>
<path d="M379.35 296.502C378.319 297.597 378.205 299.03 379.064 299.872C379.78 300.574 380.496 300.574 381.441 299.872C383.187 298.524 383.015 295.884 381.126 295.715C380.381 295.631 380.009 295.799 379.35 296.502Z" fill="black"/>
<path d="M96.1426 146.398C94.7394 146.988 93.9376 147.803 93.1358 149.488C91.7613 152.325 92.4772 155.33 94.9399 157.016C97.0017 158.448 100.209 158.308 102.156 156.707L102.987 156.033L107.024 157.886C111.892 160.133 132.481 168.981 132.854 168.981C132.997 168.981 133.054 169.094 132.968 169.234C132.882 169.346 132.052 169.543 131.107 169.655C127.069 170.105 119.796 172.183 112.608 174.964C107.711 176.846 95.713 182.801 90.1291 186.087C72.1172 196.732 55.9666 209.962 45.2568 222.883C42.4505 226.281 40.8755 228.304 40.8755 228.584C40.8755 228.697 40.0737 228.247 39.1287 227.545C37.2388 226.197 36.2651 225.804 35.6638 226.169C35.4633 226.309 35.0624 226.365 34.8047 226.337C34.3179 226.253 32.8575 227.826 29.6789 231.955C26.8726 235.55 26.9585 235.803 33.2298 240.915C35.0911 242.46 36.8092 243.696 37.0097 243.696C37.2388 243.696 37.5824 243.499 37.8401 243.275C38.0692 243.022 38.3269 242.853 38.3556 242.881C38.8424 243.19 40.2169 241.954 42.7082 239.033C45.1136 236.224 45.715 235.326 45.8581 234.371C46.0586 233.191 46.0299 233.135 44.7127 231.983C43.9109 231.281 43.4241 230.663 43.5386 230.41C43.6245 230.214 44.9418 228.191 46.4881 225.972C48.8076 222.658 50.0962 221.141 53.7616 217.574C79.047 192.8 116.445 172.268 136.719 172.015C138.495 172.015 139.984 172.127 140.499 172.352C141.358 172.689 141.387 172.773 141.387 174.43C141.416 176.649 142.074 178.082 143.821 179.599C145.339 180.891 146.542 181.34 148.718 181.34C150.436 181.34 152.756 180.301 153.815 179.065L154.531 178.222L156.392 179.065C158.597 180.048 160.144 181.818 162.177 185.609C164.84 190.665 165.728 194.204 166.443 202.294C167.417 213.304 169.393 223.276 171.655 228.893C172.572 231.169 172.944 231.73 174.834 233.584C176.953 235.663 176.981 235.719 177.039 237.236C177.239 241.73 181.706 244.876 186.174 243.668C187.72 243.246 189.381 242.123 190.068 241.027C190.641 240.129 190.669 240.129 191.729 240.466C193.934 241.196 199.489 241.561 202.983 241.196C219.563 239.511 247.282 228.669 265.81 216.591C272.024 212.574 278.839 206.9 280.471 204.457L280.929 203.783L282.332 205.355C284.28 207.49 285.024 207.49 288.489 205.271C292.04 202.968 293.157 201.957 293.157 201.03C293.157 200.609 293.3 200.131 293.443 199.991C293.644 199.794 293.672 199.457 293.472 198.979C293.1 197.996 288.174 191.62 287.258 190.918C285.969 189.935 284.91 190.16 282.103 191.957C278.18 194.513 276.548 195.862 276.548 196.592C276.548 196.957 277.121 198.137 277.808 199.232L279.068 201.255L275.574 204.569C271.508 208.445 268.1 211.057 261.801 215.13C241.183 228.388 214.408 238.303 198.659 238.443C196.797 238.471 194.535 238.303 193.447 238.078L191.5 237.685V236.421C191.5 234.932 190.641 232.938 189.553 231.815C188.264 230.466 187.004 229.989 184.656 229.961C182.136 229.933 180.446 230.551 179.072 232.039L178.127 233.022L176.695 231.646C174.977 229.989 173.86 227.461 172.6 222.517C171.569 218.304 170.166 209.007 169.737 203.389C169.078 194.935 168.047 190.862 165.183 185.357C164.267 183.615 163.609 182.183 163.666 182.183C163.752 182.183 170.281 184.907 178.155 188.222L192.502 194.261V196.48C192.502 198.502 192.588 198.811 193.361 199.906C195.824 203.333 200.749 203.895 203.641 201.086C207.192 197.603 206.362 192.154 201.952 190.16C201.179 189.795 200.062 189.486 199.518 189.486C198.258 189.486 195.566 190.469 194.736 191.227L194.106 191.789L188.579 189.429C185.544 188.137 176.896 184.486 169.393 181.312L155.734 175.582L155.705 174.178C155.648 169.178 150.15 165.779 145.797 168.026C145.024 168.419 144.136 168.981 143.793 169.29C143.478 169.571 142.991 169.824 142.704 169.824C142.418 169.824 136.118 167.268 128.701 164.15C121.256 161.06 112.723 157.549 109.745 156.37L104.275 154.235L104.504 153.252C105.506 148.758 100.409 144.601 96.1426 146.398ZM99.6934 148.87C100.209 149.067 100.925 149.6 101.268 150.05C101.812 150.724 101.898 151.117 101.812 152.465C101.669 154.319 100.982 155.274 99.3498 155.808C96.5148 156.735 93.5367 153.645 94.5103 150.78C94.7681 150.05 95.169 149.6 96.1139 149.123C97.5744 148.393 98.3475 148.308 99.6934 148.87ZM200.405 192.042C203.441 193.053 204.443 196.536 202.353 198.895C199.432 202.153 194.134 199.513 194.793 195.131C194.936 194.12 195.251 193.615 196.11 192.8C197.37 191.62 198.516 191.424 200.405 192.042ZM286.599 194.176C287.115 194.935 288.375 196.48 289.348 197.687L291.124 199.822L289.635 200.946C288.804 201.535 287.458 202.631 286.599 203.333C285.74 204.063 284.967 204.653 284.881 204.653C284.795 204.653 284.394 204.204 284.022 203.67C283.65 203.137 282.332 201.507 281.073 200.103L278.81 197.491L279.583 196.929C280.013 196.62 281.416 195.581 282.676 194.626C283.965 193.699 285.139 192.912 285.311 192.884C285.482 192.856 286.055 193.446 286.599 194.176ZM41.3337 232.095C42.4791 232.994 43.4241 233.837 43.4241 233.949C43.4527 234.062 42.4505 235.466 41.1905 237.039C39.9592 238.612 38.6992 240.325 38.3556 240.831L37.7828 241.758L35.8356 240.044C34.7474 239.089 32.8575 237.573 31.6548 236.674L29.4498 235.045L31.3971 232.517C32.4566 231.112 33.9456 229.427 34.6902 228.753L36.0933 227.517L37.6683 229.006C38.556 229.82 40.1882 231.225 41.3337 232.095ZM187.691 234.005C189.323 235.663 189.295 238.331 187.663 239.932C185.773 241.786 182.995 241.758 181.134 239.82C178.614 237.179 179.788 233.219 183.339 232.32C184.656 231.983 184.856 232.011 185.773 232.517C186.317 232.826 187.176 233.5 187.691 234.005Z" fill="black"/>
</svg>
