<svg width="600" height="600" viewBox="0 0 600 600" fill="none" xmlns="http://www.w3.org/2000/svg">
<path d="M376.191 38.5034C366.939 41.6326 362.449 44.4898 356.191 51.5646C345.17 63.8095 342.585 81.0884 349.932 94.1497C351.837 97.6871 357.143 102.993 363.946 108.163C372.109 114.422 374.694 117.143 374.286 119.184C374.014 120.544 373.878 128.163 374.014 136.054C374.422 151.565 375.374 154.422 382.721 160.68C385.987 163.537 387.347 166.122 388.572 172.653C391.021 184.626 396.055 194.83 403.538 202.721C409.252 208.844 410.068 210.34 409.66 214.966C409.524 217.823 410.068 221.497 410.884 222.993C411.973 225.306 411.701 227.075 408.844 232.653C406.939 236.327 405.17 239.456 404.898 239.456C404.626 239.456 402.041 238.503 399.184 237.279C388.027 232.517 369.796 229.796 345.578 229.116C332.245 228.708 319.32 228.844 316.327 229.66C312.381 230.612 317.143 230.748 332.653 230.34C356.055 229.524 372.653 231.429 391.157 236.871C404.354 240.816 404.218 240.68 401.225 250.476C399.728 255.102 398.64 260.136 398.776 261.633C398.776 263.265 400.272 259.728 402.177 253.742C403.946 247.755 407.075 239.728 409.116 235.782L412.653 228.708L416.599 231.973C421.905 236.463 429.116 237.687 434.694 234.966L439.184 232.789L442.721 241.225C452.653 265.306 449.116 286.531 433.606 295.238C428.98 297.959 425.442 298.639 414.694 299.048C402.857 299.592 380.816 297.007 373.197 294.286C371.837 293.878 371.157 293.878 371.701 294.422C373.742 296.735 393.47 300.816 406.259 301.633C419.456 302.449 420.136 302.585 422.313 306.122C425.714 311.973 425.034 314.694 418.095 323.946C398.367 350.204 373.47 365.714 347.211 368.163C338.231 368.98 337.279 368.844 330.476 364.762C313.469 354.694 294.83 339.048 285.85 327.347C278.095 317.415 271.973 302.449 270.748 290.612L269.796 280.952L269.66 289.116C269.524 294.558 270.612 300.544 272.789 306.803C275.238 314.286 275.646 316.735 274.286 318.095C271.973 320.544 250.884 328.844 238.504 332.245C230.204 334.422 223.674 335.102 208.163 335.238C184.626 335.374 177.007 333.878 165.578 326.667C157.959 321.769 157.143 320.816 156.735 316.327C156.599 313.605 155.782 310.068 154.966 308.571C154.15 307.075 153.878 305.578 154.15 305.306C155.51 303.81 170.204 300.544 186.395 297.959C219.184 292.789 222.177 291.156 251.701 263.81C260.272 255.782 270.34 247.483 273.878 245.17C280.408 241.088 280.544 241.088 283.129 243.673C284.49 245.034 287.347 246.122 289.524 246.122L293.197 245.986L289.116 245.034C286.259 244.49 284.354 242.857 282.721 239.456C281.361 236.871 279.592 234.694 278.64 234.558C277.687 234.558 275.51 234.286 274.014 234.286C267.347 233.742 260.816 221.769 257.959 204.762L257.007 199.32L267.619 197.551C281.769 195.374 282.993 195.374 282.993 198.503C282.993 199.864 284.082 202.449 285.578 204.218C287.755 206.939 288.435 207.075 290.204 205.578C293.333 203.129 294.694 204.49 295.646 210.748C296.055 214.014 298.64 219.456 302.177 224.49L307.891 232.789L303.265 237.687C300.68 240.544 299.864 241.905 301.361 240.816C302.857 239.864 305.442 237.415 307.075 235.646L309.932 232.245L307.075 228.435C304.49 224.898 304.49 224.354 306.395 222.177C311.565 216.327 313.333 195.918 309.388 184.762C306.667 176.463 299.864 168.844 291.021 163.946C284.354 160.272 282.585 159.864 270.748 159.864C255.238 159.864 249.932 162.177 240.408 172.789C229.66 184.762 226.939 200.136 232.517 217.687C238.912 237.687 237.687 244.626 225.306 260.544C219.592 267.755 214.286 277.551 209.796 288.571C208.572 291.837 207.211 292.245 186.531 295.782C174.422 297.823 161.089 300.68 156.735 302.177C152.109 303.81 143.674 305.306 135.782 305.714L122.585 306.531L121.769 302.993C120.272 297.279 116.599 295.102 106.123 293.742C100.816 293.061 95.7824 292.245 95.1022 291.701C94.1498 291.156 93.7416 298.639 94.0137 313.197C94.2858 334.422 94.1498 335.374 91.5647 335.782C87.7552 336.327 87.0749 331.973 87.0749 307.891V288.163L91.1566 288.708C96.0545 289.388 96.5988 287.483 91.9729 286.259C87.0749 285.034 85.7144 286.531 85.7144 292.653V297.959H79.0477C74.9661 297.959 71.8368 298.639 70.7484 300C68.1634 302.993 70.3403 304.762 77.0069 304.762C83.4015 304.762 83.5375 304.898 85.0341 313.197L85.8505 318.231L77.9593 318.639C71.1566 319.048 70.0681 319.456 70.0681 321.769C70.0681 324.082 71.1566 324.49 77.8232 324.898L85.5783 325.306L85.9865 331.02C86.3947 336.599 86.5307 336.735 91.5647 337.143C96.1906 337.551 96.5988 337.279 96.5988 334.15C96.5988 331.02 97.143 330.612 104.898 329.796C113.47 328.844 121.089 324.354 121.089 320.272C121.089 317.551 123.81 317.959 123.946 320.68C123.946 322.041 125.17 320.544 126.531 317.279C128.027 314.15 129.796 311.565 130.748 311.565C131.701 311.565 131.837 312.517 131.157 313.878C130.612 315.238 129.932 318.639 129.524 321.497C129.116 325.714 128.572 326.395 127.075 325.034C125.578 323.81 125.17 323.81 125.17 325.034C125.17 325.85 126.259 326.939 127.619 327.347C128.844 327.755 130.884 328.571 131.973 329.116C133.197 329.796 136.871 330.612 140.136 331.157C143.538 331.565 145.306 331.565 144.218 331.157C137.551 328.299 134.014 320.952 137.687 317.279C140.408 314.558 141.497 315.374 141.497 320.136C141.497 323.401 142.313 324.898 144.626 325.85C146.259 326.667 147.483 328.299 147.483 329.524C147.347 331.293 147.755 331.565 149.388 330.748C153.606 328.435 182.993 349.252 201.905 367.755C216.735 382.449 225.578 393.878 242.313 420C259.728 446.939 268.163 458.367 279.864 470.068C288.299 478.503 310.748 496.327 315.646 498.503C316.735 498.912 320.136 500.816 323.129 502.585L328.572 505.85L331.429 523.946C332.925 534.014 334.014 542.585 333.742 543.265C333.333 543.81 331.157 545.17 328.844 546.123C323.538 548.435 308.844 560.136 308.844 561.905C308.844 562.857 318.367 563.129 335.782 562.993L362.585 562.585L362.857 555.782C363.265 549.252 365.306 532.653 366.803 524.898C367.211 522.585 368.435 521.089 369.796 521.089C371.973 520.952 371.973 520.952 369.796 519.728C366.395 517.687 368.163 512.517 371.973 513.469C392.653 519.184 427.211 519.592 447.619 514.286C485.17 504.49 515.782 479.456 531.021 445.85C536.191 434.558 534.286 436.327 528.027 448.844C504.762 494.966 452.245 521.905 397.279 515.646C384.218 514.286 370.068 511.565 370.068 510.612C370.068 508.435 377.551 477.279 380.544 467.347C384.354 454.014 399.048 416.191 402.313 411.293C405.17 406.939 403.946 404.898 397.415 402.721C391.157 400.68 388.163 398.095 390.34 396.599C391.157 396.191 399.048 397.687 407.755 399.864C447.347 409.932 469.252 412.789 509.116 412.925H541.361L540.544 416.327C540.136 418.231 538.64 423.401 537.279 427.891C535.918 432.245 535.102 436.191 535.374 436.463C536.327 437.415 542.857 414.694 544.898 402.993C547.891 386.531 548.708 367.347 547.075 354.422L545.714 343.537L546.395 358.095C546.803 365.986 546.531 372.925 545.85 373.333C544.354 374.286 526.531 369.796 511.429 364.626C477.007 352.789 433.197 324.354 425.442 308.708C422.449 302.585 422.313 301.769 424.354 301.088C430.476 299.32 439.728 294.422 442.041 291.973C443.538 290.34 445.987 286.395 447.483 282.993C452.517 271.973 450.476 248.844 443.401 236.871C441.905 234.422 440.953 232.109 441.225 231.837C442.177 230.748 478.912 249.66 489.388 256.599C515.374 273.878 534.83 300.272 541.361 327.347C545.306 343.674 545.578 344.082 544.762 336.054C542.993 316.599 529.796 290.884 512.925 273.605C497.687 258.231 484.354 249.524 451.701 234.286C433.742 225.85 431.429 224.218 433.878 221.225C435.374 219.456 436.055 219.456 438.64 221.088C440.272 222.177 449.524 226.667 459.456 231.156C513.333 255.374 544.082 290.884 552.381 338.231C554.558 350.884 554.15 387.891 551.837 401.633C542.041 456.327 511.837 496.327 466.531 514.422C458.776 517.551 452.109 520.408 451.701 520.816C450.068 522.449 459.592 519.32 470.612 514.422C510.204 497.415 538.776 462.721 550.34 417.687C551.565 412.517 552.517 411.429 556.327 410.34C560.544 409.116 561.089 409.388 566.259 415.51C571.701 421.905 580.68 428.571 583.81 428.571C587.483 428.571 582.857 395.918 577.279 383.265C575.51 379.048 574.422 378.231 570.884 378.231C568.572 378.231 564.354 377.823 561.633 377.415L556.463 376.463V364.898C556.463 321.905 538.64 282.993 507.211 257.551C493.47 246.395 482.721 240 460.544 229.524C446.667 222.857 441.361 219.728 441.089 217.823C440.272 213.061 426.667 204.49 421.905 205.85C418.231 206.803 413.742 203.265 406.395 193.469C396.191 180.136 392.517 165.17 398.64 161.905C400.136 161.088 403.265 157.959 405.442 154.83C409.388 149.524 409.524 148.707 409.524 134.558C409.524 124.218 408.98 119.728 407.891 119.32C406.803 118.912 410.068 114.966 416.055 109.252C430.612 95.5102 435.102 82.7211 430.748 67.7551C425.442 49.2517 411.565 38.2313 392.109 37.2789C385.578 37.0068 379.592 37.415 376.191 38.5034ZM405.85 42.1769C421.633 48.0272 429.932 60.136 429.932 76.7347C429.932 83.5374 428.98 88.2993 427.075 92.517C423.81 99.7279 403.674 119.728 399.592 119.728C397.007 119.728 396.871 119.048 397.687 107.075C398.776 91.2925 399.456 89.2517 403.538 87.0748C407.483 84.898 408.98 80.8163 406.803 78.2313C404.626 75.6463 402.857 76.8708 400.544 82.449C397.279 90.2041 389.66 87.8912 391.973 79.864C392.925 76.7347 392.653 75.1021 391.293 73.7415C388.844 71.2925 386.395 72.7891 386.395 76.5986C386.395 79.3197 386.395 79.3197 388.435 76.7347C390.34 74.1497 390.34 74.2857 390.476 77.1429C390.476 78.9116 389.932 80.2721 389.116 80.2721C388.435 80.2721 387.755 81.2245 387.755 82.3129C387.755 84.2177 383.81 87.0748 381.361 87.0748C380.68 87.0748 379.32 84.898 378.367 82.3129C376.327 76.4626 372.517 74.0136 370.068 77.0068C367.483 79.864 370.476 85.5782 375.374 87.2109C378.776 88.4354 379.592 89.7959 381.497 97.2789C382.721 102.041 383.674 109.116 383.674 112.925C383.674 119.32 383.401 119.728 380.272 119.728C377.823 119.728 376.871 119.048 376.871 117.007C376.871 115.102 374.014 112.381 367.755 108.299C356.735 101.224 354.694 99.1837 350.884 90.4762C348.572 85.1701 348.027 82.1769 348.572 74.966C350.612 47.0748 377.687 31.7007 405.85 42.1769ZM376.191 81.6327C378.912 86.9388 378.776 87.2109 374.966 85.5782C370.476 83.5374 368.98 77.551 372.925 77.551C373.606 77.551 374.966 79.3197 376.191 81.6327ZM405.034 82.9932C403.538 85.5782 401.361 86.6667 401.361 84.898C401.361 82.8571 404.354 78.9116 405.442 79.5918C406.259 80.136 406.123 81.4966 405.034 82.9932ZM395.646 88.1633C397.959 88.5714 398.504 89.3878 397.959 91.0204C397.415 92.2449 396.735 99.1837 396.327 106.395L395.51 119.728H390.34H385.034V112.517C385.034 108.707 384.082 101.769 383.129 97.2789C382.041 92.7891 381.225 89.1157 381.361 89.1157C381.497 88.9796 383.129 88.2993 385.034 87.483C386.939 86.5306 389.388 86.2585 390.476 86.6667C391.565 87.0748 393.878 87.7551 395.646 88.1633ZM404.082 149.66C404.082 150.476 398.776 151.02 391.021 151.02C382.721 151.02 378.367 150.476 378.912 149.66C379.32 148.844 385.17 148.299 391.973 148.299C399.184 148.299 404.082 148.844 404.082 149.66ZM394.966 174.966C397.279 184.082 399.32 187.891 408.572 199.048C416.327 208.435 413.333 210.34 404.898 201.361C397.279 193.197 392.109 182.585 390.884 172.925C389.796 162.857 392.381 164.218 394.966 174.966ZM416.871 212.789C416.055 218.095 416.327 218.912 418.912 219.728C420.816 220.272 421.769 221.769 421.769 224.218C421.769 227.483 421.905 227.619 423.674 225.17C425.442 222.721 425.578 222.721 427.075 225.442C427.891 227.211 429.524 228.027 430.884 227.755C432.245 227.347 434.558 227.891 435.918 228.98C438.504 230.884 438.504 231.02 434.966 233.333C430.612 236.19 422.993 235.374 417.959 231.701C414.694 229.252 410.884 220.68 410.884 215.646C410.884 212.517 414.422 206.803 416.327 206.803C417.143 206.803 417.279 209.388 416.871 212.789ZM426.939 207.755C422.857 216.327 417.687 220.544 417.687 215.238C417.687 211.565 421.633 206.803 424.626 206.803C426.259 206.803 427.211 207.211 426.939 207.755ZM431.973 211.02C432.517 211.837 431.701 213.333 430.068 214.422C428.435 215.51 427.211 217.143 427.211 217.959C427.211 218.912 428.435 218.231 429.932 216.599C431.565 214.966 433.333 213.605 434.014 213.605C436.735 213.605 439.456 215.374 439.456 217.143C439.456 218.095 438.64 218.639 437.551 218.231C436.463 217.823 434.15 219.456 432.109 222.041C428.844 226.259 428.572 226.395 428.572 223.401C428.572 220.816 428.027 220.408 425.85 221.088C423.674 221.769 423.129 221.361 423.129 218.776C423.129 212.517 429.524 206.939 431.973 211.02ZM117.279 299.048C120 301.769 120.408 303.265 120 311.293C119.592 323.401 116.463 326.803 105.034 327.619L97.0069 328.163L96.0545 323.81C95.1022 318.776 94.9661 296.054 95.7824 295.102C96.1906 294.694 100.408 294.83 105.306 295.238C112.109 295.782 114.966 296.735 117.279 299.048ZM84.3539 302.041C84.3539 302.721 81.2246 303.401 77.4151 303.401C73.1974 303.401 70.8845 302.857 71.4287 302.041C71.8368 301.225 74.9661 300.68 78.3675 300.68C81.6328 300.68 84.3539 301.225 84.3539 302.041ZM153.742 310.068C154.422 311.565 155.102 314.286 155.102 316.191V319.592L146.667 315.646C141.905 313.469 134.694 310.748 130.612 309.66L123.129 307.619H137.687C150.748 307.483 152.381 307.755 153.742 310.068ZM127.891 311.293C127.891 312.653 124.898 315.646 123.538 315.646C122.993 315.646 122.449 314.422 122.449 312.925C122.449 311.156 123.401 310.204 125.17 310.204C126.667 310.204 127.891 310.748 127.891 311.293ZM135.51 321.088C135.374 329.66 134.422 331.157 131.837 326.395C130.748 324.082 130.748 322.177 131.837 318.231C134.15 310.612 135.646 311.701 135.51 321.088ZM151.429 320.544C161.769 325.85 181.361 339.184 193.878 349.66C213.197 365.85 228.572 383.81 245.714 410.34C249.932 417.007 256.327 426.667 259.592 431.973C274.15 454.422 291.157 471.701 315.374 488.435C323.401 494.014 327.891 497.959 327.891 499.592C327.891 502.993 326.667 502.721 318.912 497.687C285.034 476.054 274.286 465.034 248.572 425.85C226.531 392.381 220 383.537 206.803 370.204C191.973 354.966 162.313 332.381 147.347 324.626C144.49 323.265 142.857 321.361 142.857 319.728C142.857 316.327 142.857 316.327 151.429 320.544ZM85.0341 321.769C85.0341 323.265 75.6464 324.354 72.5171 323.265C71.4287 322.857 71.0205 321.769 71.4287 321.088C72.5171 319.184 85.0341 319.864 85.0341 321.769ZM295.782 340.816C301.225 345.986 312.109 354.558 320 359.864C330.476 366.667 334.286 370.068 333.878 371.565C328.708 389.796 325.987 424.082 326.803 462.857C327.075 479.32 326.939 492.517 326.259 492.517C325.578 492.517 319.728 488.98 313.197 484.762C294.286 472.381 275.374 452.381 258.912 427.211C234.83 390.476 227.075 379.728 215.374 367.347C204.898 356.191 186.939 340.272 180.272 336.191C177.687 334.558 177.823 334.558 180.952 335.374C182.857 335.782 190.884 336.599 198.912 337.007L213.469 337.823L218.64 346.667C221.497 351.565 227.347 358.639 231.701 362.585C239.32 369.524 256.463 379.456 257.959 377.823C258.504 377.415 258.231 375.102 257.415 372.925C255.238 366.667 254.15 350.612 255.646 348.299C256.871 346.531 257.415 346.803 259.456 349.66C262.721 354.422 268.98 360.544 270.476 360.544C271.157 360.544 272.109 355.51 272.517 349.252C272.925 342.857 274.558 334.558 276.327 330.068L279.184 322.041L282.721 326.667C284.626 329.252 290.476 335.51 295.782 340.816ZM577.551 390.612C581.769 404.354 584.082 425.85 581.225 425.85C580.136 425.85 575.374 421.769 570.612 416.871L561.905 407.891L564.082 402.993C565.306 400 566.259 394.15 566.123 388.708V379.592H570.068C573.878 379.592 574.15 380.136 577.551 390.612ZM361.633 552.517C362.041 559.592 361.769 560.272 358.912 561.089C353.606 562.449 312.925 562.041 312.925 560.544C312.925 558.912 324.082 550.612 331.293 546.939C335.782 544.626 338.912 544.218 348.98 544.49L361.225 544.898L361.633 552.517Z" fill="black"/>
<path d="M261.225 203.402C260.136 204.626 260.136 205.442 260.952 205.442C262.585 205.442 264.49 202.857 263.538 201.905C263.265 201.633 262.177 202.177 261.225 203.402Z" fill="black"/>
<path d="M261.225 203.402C260.136 204.626 260.136 205.442 260.952 205.442C262.585 205.442 264.49 202.857 263.538 201.905C263.265 201.633 262.177 202.177 261.225 203.402Z" stroke="black"/>
<path d="M273.47 202.585C273.47 203.946 277.551 205.85 278.504 204.898C278.912 204.49 278.776 203.673 278.232 202.857C277.143 201.088 273.47 200.816 273.47 202.585Z" fill="black"/>
<path d="M273.47 202.585C273.47 203.946 277.551 205.85 278.504 204.898C278.912 204.49 278.776 203.673 278.232 202.857C277.143 201.088 273.47 200.816 273.47 202.585Z" stroke="black"/>
<path d="M267.483 209.252C265.987 211.837 267.891 219.048 270.204 219.048C271.429 219.048 271.837 218.367 271.293 217.415C270.749 216.599 269.932 214.014 269.524 211.701C268.844 208.844 268.3 208.027 267.483 209.252Z" fill="black"/>
<path d="M267.483 209.252C265.987 211.837 267.891 219.048 270.204 219.048C271.429 219.048 271.837 218.367 271.293 217.415C270.749 216.599 269.932 214.014 269.524 211.701C268.844 208.844 268.3 208.027 267.483 209.252Z" stroke="black"/>
<path d="M273.47 209.524C273.47 210.204 274.014 210.884 274.694 210.884C275.511 210.884 276.463 210.204 276.871 209.524C277.279 208.707 276.735 208.163 275.647 208.163C274.422 208.163 273.47 208.707 273.47 209.524Z" fill="black"/>
<path d="M273.47 209.524C273.47 210.204 274.014 210.884 274.694 210.884C275.511 210.884 276.463 210.204 276.871 209.524C277.279 208.707 276.735 208.163 275.647 208.163C274.422 208.163 273.47 208.707 273.47 209.524Z" stroke="black"/>
<path d="M262.313 210.476C263.266 210.884 264.49 210.748 264.898 210.34C265.442 209.932 264.626 209.524 263.13 209.66C261.633 209.66 261.225 210.068 262.313 210.476Z" fill="black"/>
<path d="M262.313 210.476C263.266 210.884 264.49 210.748 264.898 210.34C265.442 209.932 264.626 209.524 263.13 209.66C261.633 209.66 261.225 210.068 262.313 210.476Z" stroke="black"/>
<path d="M278.503 221.224C276.326 224.082 276.326 224.49 278.231 224.49C280.408 224.49 282.313 221.497 281.36 219.184C281.224 218.503 279.864 219.456 278.503 221.224Z" fill="black"/>
<path d="M278.503 221.224C276.326 224.082 276.326 224.49 278.231 224.49C280.408 224.49 282.313 221.497 281.36 219.184C281.224 218.503 279.864 219.456 278.503 221.224Z" stroke="black"/>
<path d="M17.007 262.857C15.6464 267.619 14.4219 338.095 15.6464 351.565L16.5988 363.674L27.7553 362.993C34.8301 362.449 44.0818 360.68 52.7893 357.959L66.6668 353.606V314.558C66.6668 293.061 66.1226 274.694 65.4423 273.606C63.9457 271.429 54.1498 268.027 34.694 263.265C22.5584 260.281 19.3681 259.479 18.0513 260.699C17.5671 261.147 17.3362 261.87 17.007 262.857ZM54.9661 270.884C58.5703 271.764 60.9249 272.075 62.4566 273.364C65.6662 276.065 65.2623 283.059 65.1702 308.572C65.1702 327.075 64.7621 344.626 64.2178 347.619L63.2655 353.061L50.3403 356.871C35.6464 361.089 19.8641 363.129 18.5036 360.816C17.2791 358.912 17.2791 269.524 18.3675 264.898L19.3199 261.497L34.4219 265.578C37.492 266.371 40.6522 267.199 43.5745 267.965C48.6816 269.304 53.0623 270.452 54.9661 270.884Z" fill="black"/>
<path d="M17.007 262.857C15.6464 267.619 14.4219 338.095 15.6464 351.565L16.5988 363.674L27.7553 362.993C34.8301 362.449 44.0818 360.68 52.7893 357.959L66.6668 353.606V314.558C66.6668 293.061 66.1226 274.694 65.4423 273.606C63.9457 271.429 54.1498 268.027 34.694 263.265C22.5584 260.281 19.3681 259.479 18.0513 260.699C17.5671 261.147 17.3362 261.87 17.007 262.857ZM54.9661 270.884C58.5703 271.764 60.9249 272.075 62.4566 273.364C65.6662 276.065 65.2623 283.059 65.1702 308.572C65.1702 327.075 64.7621 344.626 64.2178 347.619L63.2655 353.061L50.3403 356.871C35.6464 361.089 19.8641 363.129 18.5036 360.816C17.2791 358.912 17.2791 269.524 18.3675 264.898L19.3199 261.497L34.4219 265.578C37.492 266.371 40.6522 267.199 43.5745 267.965C48.6816 269.304 53.0623 270.452 54.9661 270.884Z" stroke="black"/>
<path d="M42.0409 284.218C29.3878 294.15 27.347 328.844 38.6395 340.816C44.0817 346.531 47.8912 346.803 53.0613 341.769C60.6803 334.15 64.0817 314.286 60.6803 298.095C57.415 282.857 50.3402 277.551 42.0409 284.218ZM54.1497 286.122C59.5919 291.973 61.9048 314.558 58.3674 328.435C56.5987 335.782 50.6123 342.857 46.3946 342.857C35.7823 342.857 28.8436 316.054 34.966 298.775C37.8232 291.02 44.6259 282.993 48.5715 282.993C50.0681 282.993 52.517 284.354 54.1497 286.122Z" fill="black"/>
<path d="M42.0409 284.218C29.3878 294.15 27.347 328.844 38.6395 340.816C44.0817 346.531 47.8912 346.803 53.0613 341.769C60.6803 334.15 64.0817 314.286 60.6803 298.095C57.415 282.857 50.3402 277.551 42.0409 284.218ZM54.1497 286.122C59.5919 291.973 61.9048 314.558 58.3674 328.435C56.5987 335.782 50.6123 342.857 46.3946 342.857C35.7823 342.857 28.8436 316.054 34.966 298.775C37.8232 291.02 44.6259 282.993 48.5715 282.993C50.0681 282.993 52.517 284.354 54.1497 286.122Z" stroke="black"/>
<path d="M45.4423 298.504C44.2178 301.633 45.4423 305.442 47.6192 305.442C48.9797 305.442 49.796 303.81 50.0681 300.953C50.3403 297.687 49.9321 296.599 48.2994 296.599C47.211 296.599 45.8505 297.415 45.4423 298.504Z" fill="black"/>
<path d="M45.4423 298.504C44.2178 301.633 45.4423 305.442 47.6192 305.442C48.9797 305.442 49.796 303.81 50.0681 300.953C50.3403 297.687 49.9321 296.599 48.2994 296.599C47.211 296.599 45.8505 297.415 45.4423 298.504Z" stroke="black"/>
<path d="M45.8506 319.184C44.354 320.68 44.7622 326.258 46.3948 327.347C48.2996 328.435 50.4765 325.306 50.0683 321.905C49.6601 319.048 47.3472 317.687 45.8506 319.184Z" fill="black"/>
<path d="M45.8506 319.184C44.354 320.68 44.7622 326.258 46.3948 327.347C48.2996 328.435 50.4765 325.306 50.0683 321.905C49.6601 319.048 47.3472 317.687 45.8506 319.184Z" stroke="black"/>
<path d="M379.592 523.401C388.843 526.122 431.701 526.667 440.136 524.082C442.901 523.302 444.225 522.928 444.205 522.826C444.186 522.733 443.031 522.869 440.816 523.129C420.68 525.85 400.544 525.442 376.871 521.905C374.014 521.497 375.238 522.041 379.592 523.401Z" fill="black"/>
<path d="M379.592 523.401C388.843 526.122 431.701 526.667 440.136 524.082C442.901 523.302 444.225 522.928 444.205 522.826C444.186 522.733 443.031 522.869 440.816 523.129C420.68 525.85 400.544 525.442 376.871 521.905C374.014 521.497 375.238 522.041 379.592 523.401Z" stroke="black"/>
<path d="M447.347 522.041C448.3 522.449 449.524 522.313 449.932 521.905C450.477 521.497 449.66 521.089 448.164 521.225C446.667 521.225 446.259 521.633 447.347 522.041Z" fill="black"/>
<path d="M447.347 522.041C448.3 522.449 449.524 522.313 449.932 521.905C450.477 521.497 449.66 521.089 448.164 521.225C446.667 521.225 446.259 521.633 447.347 522.041Z" stroke="black"/>
</svg>
