<svg width="1024" height="768" viewBox="0 0 1024 768" fill="none" xmlns="http://www.w3.org/2000/svg">
<path fill-rule="evenodd" clip-rule="evenodd" d="M285.679 566.027C290.196 571.251 296.866 575.128 301.984 579.904C307.358 584.921 313.191 589.305 318.544 594.261C342.158 565.4 374.506 547.703 402.529 523.754C415.814 512.399 425.602 496.998 432.765 481.192C436.437 473.089 439.15 464.749 441.273 456.117C442.229 452.229 443.164 448.354 443.789 444.413C444.546 439.64 444.742 439.233 447.962 435.508C449.348 433.905 452.033 429.221 454.748 429.737C457.033 430.172 461.212 437.127 462.656 438.845C469.6 447.108 476.332 455.622 483.643 463.565C494.828 475.719 505.011 487.679 515.396 500.561C536.64 526.916 559.556 551.725 582.68 576.524C584.395 578.363 588.394 583.756 590.858 584.481C593.854 585.362 598.723 581.687 601.74 579.633C609.023 574.675 614.763 568.538 620.989 562.393C633.138 550.401 641.365 533.568 646.899 517.552C650.212 507.965 652.366 498.027 655.785 488.473C657.21 484.491 660.44 479.597 658.8 476.129C658.312 475.095 655.204 472.348 654.108 472.138C652.812 471.889 650.651 473.666 650.201 473.543C645.901 472.366 648.287 467.865 645.729 465.443C644.279 464.069 636.904 464.27 634.702 463.515C626.651 460.753 619.428 455.485 611.817 452.34C579.954 439.176 547.703 426.371 520.196 404.874C513.062 399.3 508.322 395.111 499.81 391.508C491.208 387.867 482.561 384.619 473.784 381.442C466.04 378.639 458.254 376.011 450.254 374.002C441.604 371.829 429.333 369.074 420.69 371.873C403.717 377.368 398.236 391.353 391.477 406.106C382.332 426.066 371.275 444.954 359.288 463.326C336.228 498.674 308.182 530.393 285.679 566.027Z" fill="#07B594"/>
<path fill-rule="evenodd" clip-rule="evenodd" d="M796.84 253.53C797.774 253.056 805.066 256.024 806.29 256.478C811.179 258.292 815.784 261.306 820.39 263.758C816.86 268.054 813.329 272.351 809.8 276.648C806.34 268.161 801.893 261.158 796.84 253.53ZM794.433 306.335C795.634 306.47 785.494 330.837 784.31 333.573C780.001 343.524 775.477 353.378 771.111 363.304C766.881 372.923 761.515 381.772 756.109 390.758C751.485 398.443 746.729 410.369 739.754 416.061C744.158 396.523 743.578 374.058 756.21 357.653C769.304 340.646 782.25 324.039 794.433 306.335ZM285.679 566.895C305.246 535.91 329.74 508.499 350.144 478.067C361.569 461.027 372.689 443.769 382.306 425.631C389.301 412.437 393.649 393.612 404.453 383.525C409.214 379.081 414.301 374.731 420.69 372.74C429.433 370.016 441.471 372.716 450.254 374.87C466.621 378.883 482.61 385.115 498.113 391.66C513.838 398.298 527.254 410.222 541.462 419.802C556.703 430.08 573.201 437.567 590.277 444.121C605.145 449.828 618.372 458.021 633.161 463.765C636.108 464.91 642.122 464.742 644.594 466.235C647.258 467.842 646.209 472.588 649.443 474.339C650.902 475.129 651.388 472.265 652.508 472.312C653.878 472.369 655.127 473.977 656.447 474.995C661.822 479.142 658.529 481.907 656.401 487.613C649.464 506.205 645.736 525.121 635.996 542.673C627.988 557.1 616.527 570.028 603.033 579.579C600.98 581.033 594.289 586.665 591.88 586.29C589.711 585.954 585.298 580.188 583.8 578.622C577.005 571.516 570.794 563.872 564.003 556.755C553.509 545.756 543.407 534.462 533.223 523.313C521.401 510.37 510.938 495.705 500.29 481.876C495.392 475.514 489.087 470.332 483.643 464.433C476.322 456.501 469.6 447.974 462.655 439.713C460.555 437.213 457.035 430.818 453.77 430.893C451.482 430.946 447.448 436.333 446.251 438.021C441.803 444.296 441.823 455.628 439.611 463.461C434.213 482.561 424.48 501.216 411.131 515.955C397.857 530.612 380.853 541.035 365.153 552.816C348.145 565.58 332.032 578.642 318.544 595.129C313.191 590.173 307.358 585.788 301.984 580.772C296.865 575.995 290.195 572.119 285.679 566.895ZM537.548 654.555C533.744 654.594 527.302 656.934 523.899 655.525C533.993 644.356 543.263 634.773 556.034 626.588C569.287 618.094 582.496 609.676 595.368 600.616C621.309 582.358 640.389 560.705 651.225 530.299C654.015 522.469 655.884 514.257 657.929 506.208C659.029 501.873 661.219 481.593 664.938 479.842C667.141 478.804 683.721 490.457 686.348 491.909C692.49 495.306 698.655 497.94 705.005 500.598C718.654 506.313 732.725 510.672 747.199 514.311C764.552 518.674 776.372 511.455 787.122 497.816C799.318 482.342 809.453 464.883 820.604 448.633C825.675 441.242 829.876 433.863 833.621 425.711C836.072 420.377 845.793 405.986 842.434 400.303C832.851 407.599 829.403 422.106 822.875 431.875C814.739 444.05 805.57 455.529 797.392 467.693C790.515 477.921 783.499 490.316 773.339 497.669C764.402 504.136 755.912 502.148 746.294 499.241C734.637 495.719 722.554 493.983 711.13 489.614C698.767 484.887 687.07 478.181 675.008 472.713C669.385 470.163 662.652 468.714 657.353 465.535C652.786 462.797 653.467 461.351 653.132 455.52C652.74 448.717 652.289 441.909 651.988 435.1C651.786 430.525 654.26 424.322 652.581 420.907C666.275 423.281 679.659 426.461 693.257 429.274C700.702 430.814 707.881 432.718 715.402 433.928C718.269 434.389 722.188 434.376 724.755 435.625C726.803 435.037 727.847 435.411 727.887 436.746C727.985 437.471 728.14 438.186 728.353 438.889C732.552 440.799 734.994 436.702 738.636 432.772C743.13 427.922 746.495 422.46 749.792 416.761C757.164 404.019 765.661 392.035 772.483 378.934C779.436 365.579 785.083 351.28 790.978 337.424C796.386 324.712 799.849 310.964 805.825 298.553C808.492 293.013 811.872 288.432 815.819 283.752C819.076 279.89 824.087 271.559 828.951 269.785C830.237 269.316 833.605 270.104 835.066 270C837.978 269.792 840.573 268.723 843.553 268.957C850.005 269.462 857.039 273.542 862.195 277.129C858.863 280.099 850.528 283.709 856.515 289.059C862.325 294.253 865.534 284.936 867.751 280.854C878.191 289.427 876.682 301.248 877.888 313.361C878.518 319.685 880.175 325.913 881.244 332.142C882.014 336.625 881.474 341.262 881.694 345.839C882.255 357.47 883.424 368.603 883.367 380.071C883.307 392.329 882.472 404.167 881.491 416.336C879.84 436.824 876.057 457.319 872.813 477.644C870.988 489.069 868.49 500.169 866.065 511.409C863.313 524.166 858.222 536.249 855.367 548.973C852.458 545.275 850.27 545.257 845.565 545.747C841.946 546.124 839.515 545.263 839.727 550.286C839.864 553.544 842.738 556.032 845.918 556.601C850.065 557.342 851.474 555.273 853.611 552.132C854.111 558.08 850.111 564.299 848.529 570.108C847.032 575.613 846.04 581.009 843.524 586.278C841.069 591.418 838.967 596.488 836.483 601.579C835.339 603.921 834.269 606.3 833.112 608.636C832.527 609.819 831.838 611.449 830.965 612.446C828.917 614.783 829.243 613.651 826.846 614.982C821.624 617.883 823.585 617.16 823.463 623.15C823.344 629.059 820.314 633.4 815.455 636.721C805.146 643.769 794.978 645.729 783.258 649.29C772.338 652.608 760.836 655.455 749.273 655.39C735.111 655.311 721.137 653.454 706.975 653.266C691.351 653.059 675.577 653.144 659.985 653.684C653.562 653.906 647.597 654.192 641.396 655.832C634.195 657.738 627.229 656.982 619.807 656.693C603.973 656.077 587.593 654.852 571.966 654.742C560.714 654.662 548.842 653.877 537.548 654.555ZM126.96 660.693C124.145 662.18 117.835 661.57 115.005 661.157C110.02 660.43 109.486 658.454 106.323 654.009C100.879 646.354 96.459 639.023 93.256 630.156C87.126 613.185 84.623 595.823 81.932 578.07C78.941 558.344 84.403 537.897 86.357 518.305C86.806 513.81 87.42 509.356 88.13 504.895C88.555 502.228 88.666 493.155 90.421 490.846C93.793 486.41 109.473 489.988 115.638 490.39C132.846 491.514 150.167 491.777 167.367 491.972C176.538 492.076 185.76 492.46 194.84 492.531C199.01 492.564 203.087 492.357 207.272 491.951C208.672 491.816 210.039 491.494 211.449 491.416C216.277 491.149 215.914 490.449 217.162 494.724C219.348 502.214 217.666 511.743 218.24 519.517C219.008 529.905 219.423 540.44 219.233 550.85C219.057 560.47 219.385 570.068 219.026 579.709C218.876 583.702 218.44 586.957 217.387 590.77C216.196 595.081 214.886 605.153 211.92 608.136C211.583 608.476 209.062 607.684 208.393 608.53C207.362 609.833 207.551 612.59 206.843 613.432C204.552 616.158 199.817 616.374 196.382 617.599C186.957 620.96 178.311 624.609 169.428 629.141C161.491 633.19 148.694 636.636 143.922 644.624C141.734 648.286 141.439 653.115 139.427 656.893C137.136 661.197 141.72 658.947 136.107 660.693C133.579 661.479 129.551 660.693 126.96 660.693ZM963.715 612.015C964.429 621.954 970.028 631.421 971.977 641.193C972.889 645.769 974.436 650.267 975.508 654.816C976.536 659.18 980.25 664.348 979.874 668.666C966.166 663.782 952.281 662.554 937.954 661.237C924.375 659.988 910.03 659.491 896.565 659.485C882.844 659.478 868.173 658.138 854.045 657.93C839.27 657.713 824.272 657.33 809.711 655.798C817.325 650.159 826.852 644.863 832.474 637.017C838.586 628.488 841.76 617.802 847.138 608.802C857.93 590.741 864.791 568.33 870.448 548.039C881.869 507.077 894.632 466.871 897.708 424.383C903.562 427.381 908.209 439.012 911.14 444.804C914.881 452.199 916.84 460.215 919.272 468.075C924.28 484.264 927.746 501.05 933.878 517.085C945.598 547.737 953.131 580.765 963.715 612.015ZM219.603 373.278C217.068 391.598 211.752 410.155 211.548 428.696C211.503 432.775 212.194 437.305 211.344 441.327C210.436 445.621 207.483 449.417 205.778 453.498C203.072 459.976 196.219 473.254 202.828 478.743C202.962 473.534 207.729 466.919 210.13 462.364C213.749 455.501 218.504 449.226 222.427 442.533C230.639 428.524 239.841 414.815 250.424 402.465C260.732 390.435 272.612 379.764 283.543 368.309C286.827 364.867 313.173 331.74 314.22 332.203C306.048 363.717 292.156 391.137 273.145 417.523C263.824 430.458 252.637 438.97 241.29 449.928C231.841 459.054 214.032 468.812 217.299 483.765C202.528 482.345 187.854 480.076 172.949 480.076C175.4 461.211 177.277 442.645 181.653 424.09C186.621 403.021 189.986 381.322 194.19 360.066C198.48 338.366 205.757 317.358 210.284 295.699C214.619 274.959 218.343 254.256 221.521 233.285C224.147 244.905 223.178 257.668 224.11 269.524C225.062 281.637 224.97 293.527 224.653 305.711C224.066 328.342 221.654 350.7 219.603 373.278ZM155.597 265.38C155.514 255.693 153.637 246.137 153.058 236.473C152.88 233.508 149.927 213.279 152.681 212.223C154.946 217.161 155.474 223.48 157.531 228.661C159.586 233.837 162.335 238.768 164.307 243.98C168.579 255.271 170.053 268.047 170.513 280.051C171.554 307.203 172.092 334.294 170.267 361.446C169.485 373.084 168.885 384.742 169.099 396.403C169.334 409.234 171.299 420.371 168.913 433.097C166.551 445.699 165.067 458.249 164.28 471.035C163.728 480.009 163.506 479.374 154.944 478.743C148.763 478.287 142.521 478.774 136.331 478.491C139.225 443.515 139.698 408.467 144.321 373.625C146.68 355.85 146.743 337.818 149.673 320.109C151.129 311.312 153.572 302.692 154.976 293.885C156.483 284.429 155.741 274.909 155.597 265.38ZM781.705 243.369C765.222 244.797 747.689 249.725 730.794 246.471C733.579 245.343 740.867 243.787 737.587 239.335C734.252 234.808 728.632 240.55 725.306 239.957C723.255 239.591 718.723 231.018 717.459 229.243C714.59 225.209 714.244 224.506 709.085 223.472C704.087 222.472 702.954 223.555 702.321 218.586C701.594 212.872 703.571 206.448 703.375 200.605C702.954 188.026 698.896 176.995 695.119 165.16C711.166 168.651 726.857 172.791 743.265 175.041C750.279 176.003 761.191 178.222 767.563 173.454C769.22 172.214 768.955 170.54 770.311 169.103C772.585 166.692 776.803 164.198 780.028 163.511C799.875 159.286 801.811 187.579 791.865 198.166C789.374 200.819 785.908 202.129 783.357 204.56C779.952 207.802 779.673 211.217 779.176 216.166C778.244 225.446 779.51 234.762 783.469 243.251L781.705 243.369ZM540.86 376.939C535.001 378.051 528.886 377.797 523.012 378.746C520.925 379.083 514.668 380.259 512.833 379.039C510.031 377.176 509.035 370.343 507.71 367.161C505.38 361.564 502.083 356.682 499.861 350.983C490.781 327.705 482.314 304.334 471.332 281.851C475.541 280.757 478.773 280.714 483.015 280.149C487.434 279.56 491.44 276.947 495.656 275.824C499.663 274.757 503.861 275.029 507.831 273.788C510.018 273.105 511.895 271.586 514.051 271.055C517.488 270.21 521.499 269.716 523.543 271.972C525.638 274.286 526.373 280.631 527.513 283.62C530.549 291.583 534.076 299.268 536.619 307.414C538.914 314.761 541.094 322.03 543.114 329.444C545.248 337.271 549.454 343.722 552.016 351.199C553.965 356.89 555.804 362.708 556.095 368.776C556.378 374.697 557.24 375.074 551.319 376.02C548.33 376.497 543.672 378.273 540.86 376.939ZM155.37 654.055C153.844 654.766 152.405 654.672 151.055 653.771C164.285 648.183 177.154 640.433 190.956 636.599C203.903 633.004 216.487 628.708 228.96 624.28C239.095 620.682 248.207 617.881 257.37 611.549C262.932 607.705 267.873 603.383 271.695 597.766C275.95 591.512 276.897 582.612 281.505 576.98C287.725 583.811 295.032 588.984 302.391 594.412C304.937 596.29 311.044 600.384 311.915 603.29C313.014 606.957 310.07 610.465 308.614 614.176C304.885 623.68 303.063 633.179 301.04 643.06C300.229 647.02 298.478 652.973 295.225 654.632C292.263 656.141 283.685 655.044 279.999 654.764C260.769 653.307 241.88 651.815 222.534 653.142C200.642 654.643 177.205 655.68 155.37 654.055ZM116.961 477.943C113.466 477.955 110.052 477.518 106.57 477.518C108.58 468.133 103.881 455.989 102.215 446.621C100.351 436.142 98.932 425.306 97.689 414.743C95.069 392.494 93.882 370.515 93.848 348.103C93.816 326.416 89.868 306.598 84.338 285.75C78.4 263.36 68.676 243.225 60.636 221.632C69.455 226.294 74.337 237.203 78.971 245.543C84.829 256.088 88.731 267.764 91.123 279.602C95.738 302.439 100.8 325.345 106.125 348.144C111.67 371.883 114.93 395.84 121.282 419.385C124.38 430.867 128.592 444.993 128.826 456.834C128.923 461.732 130.399 471.99 128.179 476.244C126.103 480.224 121.513 478.349 116.961 477.943ZM644.512 448.489C644.696 450.927 644.87 453.246 645.303 455.654C640.462 455.608 634.331 450.585 630.179 448.33C625.121 445.583 620.057 442.553 615.11 439.792C605.56 434.46 594.718 430.947 584.521 426.567C572.807 421.535 562.04 415.455 550.838 409.397C546.925 407.281 518.803 395.091 519.275 391.761C525.449 391.555 531.623 391.35 537.798 391.145C543.091 390.969 551.289 392.165 556.358 390.529C559.134 389.632 562.251 386.331 563.299 383.746C564.336 381.188 562.005 369.423 563.36 368.673C570.27 375.728 574.615 385.105 580.793 392.716C587.62 401.128 596.442 406.04 606.165 410.51C616.902 415.447 628.015 419.27 638.988 423.501C643.616 425.285 643.524 426.306 643.927 431.38C644.378 437.051 644.329 442.803 644.512 448.489ZM86.565 661.849C74.926 663.098 62.998 662.386 51.268 663.36C47 663.714 41.083 664.242 45.377 669.97C48.081 673.578 56.743 672.421 60.672 672.671C71.221 673.342 82.39 672.981 92.963 672.825C95.189 672.793 97.649 672.131 99.899 672.28C102.496 672.451 105.606 674.319 107.973 674.305C109.432 674.296 109.955 672.757 111.213 672.616C113.954 672.308 116.694 672.083 119.458 672.084C161.248 672.093 202.464 671.253 244.15 671.208C264.083 671.187 284.336 670.843 304.261 669.907C308.445 669.71 332.273 670.566 331.613 663.032C331.274 659.152 323.497 658.605 320.659 658.193C318.556 657.888 316.374 657.936 314.267 657.823C308.669 657.523 306.217 658.87 307.398 652.745C311.877 629.513 319.903 610.313 337.051 593.609C351.073 579.95 367.957 567.56 383.839 556.154C403.123 542.304 418.767 527.738 430.216 506.545C436.902 494.169 442.499 481.516 445.934 467.832C447.17 462.909 447.199 457.31 448.714 452.564C449.879 448.91 452.535 446.353 454.099 442.568C473.285 474.614 498.714 501.425 522.03 530.319C533.171 544.123 545.88 557.234 559.191 569.243C563.141 572.807 566.827 576.528 570.514 580.363C573.598 583.573 578.494 586.426 581.098 589.987C583.596 593.403 582.981 593.24 579.179 595.953C574.153 599.538 568.614 602.517 563.509 606.013C555.349 611.602 546.442 616.324 539.146 623.05C531.255 630.324 524.361 638.75 517.464 646.952C512.867 652.419 506.835 659.434 505.679 666.346C505.296 668.633 503.842 674.289 505.761 675.964C507.401 677.395 507.236 676.852 509.272 675.979C511.94 674.835 512.725 672.21 515.984 670.959C524.323 667.759 534.414 668.858 543.091 668.819C551.771 668.78 560.523 669.755 569.199 669.719C589.011 669.638 608.401 671.242 628.207 672.103C649.243 673.017 670.537 670.823 691.503 671.134C707.037 671.364 722.985 670.203 738.948 671.066C747.159 671.509 755.223 670.482 763.229 670.367C773.711 670.216 784.476 671.642 795.048 671.845C812.4 672.18 829.54 672.178 846.998 672.595C884.55 673.494 921.899 674.422 959.473 675.017C964.485 675.096 969.972 674.926 974.925 675.49C980.182 676.09 977.468 677.207 981.075 679.1C991.173 684.397 988.841 664.761 988.599 660.899C987.301 640.203 982.047 619.905 975.733 600.257C969.743 581.622 964.88 562.118 959.807 543.08C954.254 522.243 947.019 502.259 940.449 481.627C933.717 460.485 928.236 438.519 916.009 419.778C913.224 415.51 910.346 410.917 905.866 408.226C900.844 405.209 900.628 406.971 900.632 401.45C900.635 396.25 900.315 389.303 901.542 384.341C902.651 379.858 902.48 382.516 904.977 379.296C907.009 376.677 909.135 374.887 910.593 371.707C919.549 380.788 940.05 375.996 948.703 369.457C959.294 361.453 967.361 347.95 970.317 335.09C972.691 324.763 969.778 305.078 958.348 300.112C952.776 297.691 932.31 295.861 931.491 287.971C931.069 283.898 938.272 278.171 939.934 274.669C943.014 268.181 945.972 259.551 946.828 252.439C948.5 238.557 942.198 223.034 932.159 213.657C913.743 196.455 881.34 187.627 857.651 198.541C862.657 179.418 865.679 162.921 863.158 143.029C860.986 125.892 850.875 116.304 836.962 107.768C813.22 93.1997 780.934 87.4497 753.787 91.6857C747.618 92.6487 741.698 94.7137 735.986 96.3567C727.688 98.7437 717.754 97.9487 709.919 101.827C704.238 104.638 699.924 110.238 694.935 113.977C689.11 118.342 684.27 124.857 680.223 130.882C671.568 143.766 674.95 167.678 682.194 180.611C683.747 183.385 685.666 185.72 688.236 187.613C690.912 189.583 694.991 190.196 696.37 192.751C699.902 199.296 696.495 213.465 696.024 220.539C695.475 228.753 699.628 234.923 708.942 235.578C714.33 235.958 714.502 232.832 717.082 239.264C718.754 243.433 720.273 247.975 722.686 251.797C727.661 259.674 736.773 258.905 745.073 258.692C754.681 258.444 764.145 256.926 773.758 255.968C771.219 264.103 764.269 270.417 759.929 277.664C754.061 287.466 750.529 295.591 749.575 307.011C748.843 315.785 750.423 322.714 756.427 329.244C758.912 331.947 761.115 332.08 760.498 335.198C760.122 337.1 756.833 340.238 755.669 341.756C752.59 345.772 749.015 349.458 746.305 353.747C735.877 370.249 732.797 395.405 732.771 414.615C732.77 415.496 732.3 417.369 732.689 418.28C732.977 418.953 735.165 421.084 735.197 421.267C735.625 423.737 733.217 427.971 729.438 428.39C725.469 428.829 718.2 425.517 714.508 424.429C708.6 422.687 702.578 421.401 696.683 419.612C687.162 416.723 677.685 414.419 668.006 412.155C663.632 411.133 659.234 410.281 654.846 409.325C649.848 408.237 647.526 406.134 644.946 411.219C642.733 415.583 644.109 416.374 638.748 414.175C633.425 411.99 628.224 409.282 623.027 406.816C613.861 402.468 602.945 398.592 595.038 392.173C581.849 381.464 576.965 364.41 564.342 353.047C560.827 349.883 558.73 349.827 556.508 345.444C554.129 340.753 552.902 334.737 551.652 329.691C549.461 320.855 547.902 311.988 545.915 303.16C543.44 292.162 538.091 282.202 534.188 271.712C532.667 267.625 531.879 262.43 529.426 258.757C528.776 257.783 527.534 257.234 527.027 256.428C525.282 253.661 525.3 252.901 524.848 249.572C522.733 234.017 513.448 242.2 503.302 245.767C499.027 247.27 478.728 257.017 486.479 263.499C477.239 266.18 462.44 264.723 462.564 277.965C462.628 284.75 466.686 292.008 468.864 298.359C470.799 303.998 472.669 309.659 474.634 315.289C478.939 327.622 484.162 339.586 488.363 351.957C490.278 357.595 491.858 363.365 494.524 368.686C496.875 373.38 502.568 378.554 503.506 383.687C478.883 373.182 456.104 357.994 428.543 358.962C416.475 359.385 405.523 364.458 398.858 375.069C390.502 388.369 385.004 403.26 376.837 416.683C347.126 465.512 311.69 509.872 279.074 556.68C276.569 560.277 273.347 563.678 272.478 568.123C271.911 571.023 273.011 573.924 272.331 576.71C270.92 582.5 263.791 589.729 258.957 593.056C249.691 599.434 234.628 608.43 223.065 607.634C230.322 590.194 230.225 571.085 229.888 552.482C229.567 534.811 227.657 517.282 225.39 499.793C224.877 495.836 224.43 492.168 223.293 488.333C221.988 483.933 220.196 484.35 224.105 480.395C230.121 474.305 237.277 469.294 243.342 463.128C256.459 449.794 269.903 439.343 280.227 423.42C290.045 408.275 300.403 392.692 307.671 376.107C315.153 359.034 318.144 340.801 321.858 322.72C323.365 315.383 328.861 307.192 327.757 299.53C326.361 289.847 321.871 296.898 320.043 302.109C314.465 318.016 301.404 332.253 290.586 345.046C278.898 358.866 264.603 370.429 252.403 383.847C239.118 398.461 230.018 415.256 218.204 430.856C218.204 411.496 224.814 391.782 227.518 372.63C229.897 355.773 230.644 338.863 232.148 321.933C235.563 283.475 232.612 243.884 227.819 205.701C225.541 187.567 226.833 169.86 226.764 151.664C226.742 145.873 229.139 132.526 226.084 127.387C220.233 117.544 216.82 139.067 216.524 142.276C214.755 161.392 217.928 180.295 216.307 199.329C214.613 219.206 210.937 238.525 207.809 258.172C204.42 279.445 198.903 300.238 193.621 321.103C188.075 343.01 183.411 365.374 177.245 387.106C175.582 380.275 177.915 371.883 178.376 364.926C179.034 354.97 180.319 345.012 180.43 335.03C180.608 319.121 180.732 302.917 179.832 287.082C178.945 271.474 179.213 255.119 174.426 240.082C172.154 232.945 168.822 225.982 165.562 219.259C161.54 210.969 160.118 202.931 157.891 194.114C155.983 186.563 153.191 179.211 151.92 171.509C151.13 166.719 148.925 152.579 143.441 163.292C140.257 169.51 141.633 178.728 141.544 185.408C141.43 193.972 142.741 202.299 142.942 210.827C143.333 227.559 143.614 244.271 144.862 260.975C146.171 278.5 145.028 294.206 141.694 311.474C138.045 330.376 136.977 349.319 135.086 368.452C134.111 378.331 132.467 388.155 131.673 398.048C131.253 403.287 133.407 418.31 129.653 422.041C129.29 412.967 126.69 403.885 124.719 395.043C122.384 384.568 121.441 373.556 119.72 362.931C116.933 345.717 111.525 329.278 107.947 312.257C100.572 277.17 94.444 232.075 63.536 209.109C59.492 206.104 55.048 203.886 50.676 201.413C48.201 200.013 44.524 196.391 41.692 195.759C38.601 195.069 37.312 195.605 36.059 199.191C34.312 204.19 37.507 206.525 40.49 210.156C50.813 222.72 55.223 238.826 61.597 253.561C76.193 287.302 82.651 322.89 82.725 359.362C82.764 378.455 84.081 396.87 86.117 415.847C88.308 436.27 91.193 457.87 97.398 477.517C91.175 478.912 84.423 476.832 82.734 484.066C82.319 485.843 83.069 487.944 82.61 490.257C82.164 492.505 81.091 494.741 80.456 496.952C79.144 501.525 78.45 506.037 77.812 510.733C75.345 528.881 71.109 546.142 70.658 564.543C70.243 581.552 73.573 598.785 76.641 615.467C79.732 632.269 88.597 646.592 95.576 661.787C92.572 661.787 89.569 661.818 86.565 661.849Z" fill="#414141"/>
<path fill-rule="evenodd" clip-rule="evenodd" d="M481.566 623.225C484.876 624.161 500.855 625.927 500.852 630.941C500.85 633.948 484.892 633.889 482.068 634.216C481.9 630.553 481.733 626.889 481.566 623.225ZM446.295 657.824C437.087 659.575 424.588 657.113 418.701 648.995C415.95 645.202 414.646 639.433 413.75 634.906C412.894 630.592 410.255 619.827 412.051 615.783C414.256 610.817 435.413 616.007 441.574 616.577C452.323 617.569 463.438 617.686 474.194 616.985C474.194 628.091 474.762 638.915 468.23 648.474C463.517 655.371 454.667 656.999 446.295 657.824ZM448.146 671.542C458.151 667.88 468.655 670.26 475.17 659.519C476.823 656.794 478.215 653.864 479.215 650.837C479.704 649.511 480.084 648.153 480.354 646.762C479.845 643.768 480.942 642.924 483.644 644.229C488.947 643.198 494.762 646.838 500.348 645.765C513.896 643.163 511.435 623.756 502.343 617.038C500.547 615.71 498.753 615.341 496.697 614.685C492.165 613.241 489.712 614.854 485.567 614.444C482.217 614.113 481.296 610.6 477.696 609.053C475.339 608.041 472.067 608.119 469.589 608.017C456.621 607.484 443.612 607.489 430.561 606.644C424.474 606.25 417.902 607.214 411.939 606.174C409.147 605.686 409.548 603.828 406.904 605.458C404.167 607.146 405.349 613.388 405.487 615.877C406.286 630.27 407.143 645.706 414.853 658.289C421.907 669.802 435.788 670.98 448.146 671.542Z" fill="#414141"/>
<path fill-rule="evenodd" clip-rule="evenodd" d="M976.533 675.508C973.314 675.473 970.096 675.439 966.888 675.406C970.111 675.441 973.322 675.474 976.533 675.508Z" fill="#414141"/>
<path fill-rule="evenodd" clip-rule="evenodd" d="M82.7051 368.631C82.7111 365.539 82.7181 362.447 82.7251 359.361C82.7191 362.455 82.7121 365.543 82.7051 368.631Z" fill="#414141"/>
<path fill-rule="evenodd" clip-rule="evenodd" d="M901.532 381.329C901.542 384.341 901.552 387.353 901.562 390.358C901.553 387.344 901.543 384.336 901.532 381.329Z" fill="#414141"/>
<path fill-rule="evenodd" clip-rule="evenodd" d="M633.963 672.093C631.402 672.097 628.841 672.1 626.292 672.107C628.857 672.104 631.409 672.099 633.963 672.093Z" fill="#414141"/>
<path fill-rule="evenodd" clip-rule="evenodd" d="M789.46 671.479C786.899 671.487 784.339 671.495 781.79 671.505C784.355 671.498 786.907 671.488 789.46 671.479Z" fill="#414141"/>
<path fill-rule="evenodd" clip-rule="evenodd" d="M229.55 546.388C229.662 548.421 229.776 550.453 229.888 552.482C229.775 550.447 229.662 548.418 229.55 546.388Z" fill="#414141"/>
<path fill-rule="evenodd" clip-rule="evenodd" d="M86.564 661.848C88.543 661.827 90.522 661.807 92.501 661.786C90.513 660.957 88.534 660.994 86.564 661.848Z" fill="#414141"/>
<path fill-rule="evenodd" clip-rule="evenodd" d="M262.271 670.85C260.85 670.828 259.43 670.806 258.023 670.782C259.447 670.803 260.859 670.827 262.271 670.85Z" fill="#414141"/>
<path fill-rule="evenodd" clip-rule="evenodd" d="M83.4761 393.718C83.4411 392.181 83.406 390.645 83.371 389.114C83.406 390.652 83.4411 392.185 83.4761 393.718Z" fill="#414141"/>
<path fill-rule="evenodd" clip-rule="evenodd" d="M216.307 199.329C216.424 197.744 216.541 196.16 216.659 194.579C216.541 196.165 216.424 197.747 216.307 199.329Z" fill="#414141"/>
<path fill-rule="evenodd" clip-rule="evenodd" d="M82.7749 374.684C82.7559 373.095 82.7369 371.507 82.7179 369.924C82.7369 371.514 82.7559 373.099 82.7749 374.684Z" fill="#414141"/>
<path fill-rule="evenodd" clip-rule="evenodd" d="M529.459 668.88C528.196 668.899 526.933 668.917 525.681 668.933C526.946 668.913 528.203 668.897 529.459 668.88Z" fill="#414141"/>
<path fill-rule="evenodd" clip-rule="evenodd" d="M204.153 671.47C202.919 671.494 201.684 671.519 200.461 671.545C201.7 671.521 202.926 671.495 204.153 671.47Z" fill="#414141"/>
<path fill-rule="evenodd" clip-rule="evenodd" d="M70.7999 559.761C70.8889 558.367 70.9779 556.974 71.0649 555.583C70.9759 556.977 70.8879 558.369 70.7999 559.761Z" fill="#414141"/>
<path fill-rule="evenodd" clip-rule="evenodd" d="M92.9629 672.825C91.9579 672.819 90.9529 672.813 89.9599 672.811C90.9679 672.818 91.9659 672.822 92.9629 672.825Z" fill="#414141"/>
<path fill-rule="evenodd" clip-rule="evenodd" d="M229.881 671.534C228.886 671.51 227.891 671.485 226.906 671.462C227.905 671.487 228.894 671.511 229.881 671.534Z" fill="#414141"/>
<path fill-rule="evenodd" clip-rule="evenodd" d="M453.569 670.774C452.473 670.768 451.378 670.762 450.293 670.754C451.391 670.76 452.48 670.767 453.569 670.774Z" fill="#414141"/>
<path fill-rule="evenodd" clip-rule="evenodd" d="M706.178 670.77C705.137 670.777 704.095 670.785 703.065 670.794C704.11 670.788 705.144 670.779 706.178 670.77Z" fill="#414141"/>
<path fill-rule="evenodd" clip-rule="evenodd" d="M767.629 670.938C766.567 670.879 765.507 670.819 764.455 670.761C765.52 670.821 766.574 670.879 767.629 670.938Z" fill="#414141"/>
<path fill-rule="evenodd" clip-rule="evenodd" d="M473.424 266.32C475.004 266.184 476.584 266.048 478.164 265.911C476.582 266.022 474.909 265.086 473.424 266.32Z" fill="#414141"/>
<path fill-rule="evenodd" clip-rule="evenodd" d="M70.6503 662.449C72.2083 662.292 73.7662 662.134 75.3242 661.976C73.7652 662.134 72.2083 662.292 70.6503 662.449Z" fill="#414141"/>
<path fill-rule="evenodd" clip-rule="evenodd" d="M179.322 275.913C179.426 277.278 179.532 278.644 179.636 280.005C179.531 278.638 179.426 277.275 179.322 275.913Z" fill="#414141"/>
<path fill-rule="evenodd" clip-rule="evenodd" d="M82.3828 332.825C82.2768 331.531 82.1708 330.237 82.0648 328.948C82.1708 330.244 82.2778 331.534 82.3828 332.825Z" fill="#414141"/>
<path fill-rule="evenodd" clip-rule="evenodd" d="M179.942 297.087C180.054 298.45 180.167 299.812 180.278 301.17C180.166 299.806 180.054 298.446 179.942 297.087Z" fill="#414141"/>
<path fill-rule="evenodd" clip-rule="evenodd" d="M83.0433 385.063C83.0533 383.746 83.0633 382.429 83.0723 381.116C82.2223 382.429 82.2563 383.743 83.0433 385.063Z" fill="#414141"/>
<path fill-rule="evenodd" clip-rule="evenodd" d="M229.528 574.195C229.54 575.515 229.551 576.836 229.565 578.15C230.437 576.819 230.263 575.504 229.528 574.195Z" fill="#414141"/>
<path fill-rule="evenodd" clip-rule="evenodd" d="M130.225 421.472C130.377 420.136 130.53 418.799 130.682 417.467C130.529 418.805 130.377 420.139 130.225 421.472Z" fill="#414141"/>
<path fill-rule="evenodd" clip-rule="evenodd" d="M952.49 298.842C953.523 300.207 954.93 299.272 956.158 299.438C954.934 299.239 953.712 299.041 952.49 298.842Z" fill="#414141"/>
<path fill-rule="evenodd" clip-rule="evenodd" d="M441.698 607.591C443.003 607.593 444.308 607.594 445.613 607.596C444.307 607.594 443.003 607.592 441.698 607.591Z" fill="#414141"/>
<path fill-rule="evenodd" clip-rule="evenodd" d="M233.201 304.451C233.079 305.561 232.958 306.671 232.836 307.777C232.958 306.665 233.079 305.558 233.201 304.451Z" fill="#414141"/>
<path fill-rule="evenodd" clip-rule="evenodd" d="M878.148 194.21C879.46 194.236 880.772 194.262 882.084 194.288C880.786 193.524 879.478 193.303 878.148 194.21Z" fill="#414141"/>
<path fill-rule="evenodd" clip-rule="evenodd" d="M179.975 316.288C180.06 317.452 180.145 318.615 180.229 319.774C180.144 318.61 180.06 317.449 179.975 316.288Z" fill="#414141"/>
<path fill-rule="evenodd" clip-rule="evenodd" d="M215.954 173.406C215.852 172.345 215.751 171.284 215.65 170.229C215.752 171.292 215.852 172.349 215.954 173.406Z" fill="#414141"/>
<path fill-rule="evenodd" clip-rule="evenodd" d="M226.264 170.082C226.367 171.233 226.47 172.385 226.572 173.532C226.469 172.379 226.367 171.23 226.264 170.082Z" fill="#414141"/>
<path fill-rule="evenodd" clip-rule="evenodd" d="M796.157 93.1902C797.492 93.3522 798.827 93.5142 800.161 93.6752C798.826 93.5132 797.492 93.3522 796.157 93.1902Z" fill="#414141"/>
<path fill-rule="evenodd" clip-rule="evenodd" d="M892.581 195.126C893.951 195.266 895.321 195.406 896.69 195.546C895.32 195.406 893.95 195.266 892.581 195.126Z" fill="#414141"/>
<path fill-rule="evenodd" clip-rule="evenodd" d="M141.848 198.5C141.764 197.429 141.681 196.357 141.598 195.292C141.681 196.364 141.765 197.432 141.848 198.5Z" fill="#414141"/>
<path fill-rule="evenodd" clip-rule="evenodd" d="M937.547 375.256C936.758 375.268 935.97 375.279 935.193 375.291C935.985 375.279 936.766 375.268 937.547 375.256Z" fill="#414141"/>
<path fill-rule="evenodd" clip-rule="evenodd" d="M226.224 507.442C226.303 508.628 226.382 509.813 226.461 510.996C226.381 509.81 226.302 508.626 226.224 507.442Z" fill="#414141"/>
<path fill-rule="evenodd" clip-rule="evenodd" d="M145.738 276.64C145.77 275.497 145.801 274.355 145.834 273.215C145.8 274.359 145.769 275.499 145.738 276.64Z" fill="#414141"/>
<path fill-rule="evenodd" clip-rule="evenodd" d="M762.551 90.4857C763.768 90.4857 764.985 90.4867 766.2 90.4867C764.983 89.6507 763.767 89.6717 762.551 90.4857Z" fill="#414141"/>
<path fill-rule="evenodd" clip-rule="evenodd" d="M437.64 359.509C438.973 359.543 440.306 359.577 441.637 359.611C440.328 358.685 438.994 358.662 437.64 359.509Z" fill="#414141"/>
<path fill-rule="evenodd" clip-rule="evenodd" d="M321.15 668.833C320.36 668.849 319.569 668.866 318.789 668.885C319.583 668.87 320.367 668.851 321.15 668.833Z" fill="#414141"/>
<path fill-rule="evenodd" clip-rule="evenodd" d="M291.394 670.222C290.605 670.194 289.816 670.166 289.038 670.139C289.83 670.167 290.612 670.195 291.394 670.222Z" fill="#414141"/>
<path fill-rule="evenodd" clip-rule="evenodd" d="M757.089 670.771C756.266 670.792 755.443 670.813 754.631 670.833C755.457 670.812 756.273 670.792 757.089 670.771Z" fill="#414141"/>
<path fill-rule="evenodd" clip-rule="evenodd" d="M71.4839 546.536C71.6009 545.406 71.7179 544.275 71.8359 543.15C71.7179 544.282 71.6009 545.409 71.4839 546.536Z" fill="#414141"/>
<path fill-rule="evenodd" clip-rule="evenodd" d="M178.967 356.038C178.873 357.115 178.78 358.192 178.688 359.262C178.781 358.184 178.874 357.111 178.967 356.038Z" fill="#414141"/>
<path fill-rule="evenodd" clip-rule="evenodd" d="M137.603 337.547C137.731 336.405 137.859 335.263 137.986 334.125C137.858 335.268 137.731 336.407 137.603 337.547Z" fill="#414141"/>
<path fill-rule="evenodd" clip-rule="evenodd" d="M750.412 671.452C749.582 671.439 748.751 671.426 747.93 671.415C748.764 671.429 749.588 671.44 750.412 671.452Z" fill="#414141"/>
<path fill-rule="evenodd" clip-rule="evenodd" d="M448.146 671.542C447.338 671.505 446.532 671.469 445.734 671.433C446.543 671.47 447.345 671.506 448.146 671.542Z" fill="#414141"/>
<path fill-rule="evenodd" clip-rule="evenodd" d="M144.355 254.158C144.392 253.001 144.428 251.844 144.464 250.689C144.427 251.847 144.391 253.002 144.355 254.158Z" fill="#414141"/>
<path fill-rule="evenodd" clip-rule="evenodd" d="M829.115 672.208C828.305 672.202 827.496 672.195 826.697 672.19C827.511 672.197 828.312 672.203 829.115 672.208Z" fill="#414141"/>
<path fill-rule="evenodd" clip-rule="evenodd" d="M144.693 672.196C143.861 672.204 143.028 672.213 142.206 672.222C143.043 672.214 143.868 672.205 144.693 672.196Z" fill="#414141"/>
<path fill-rule="evenodd" clip-rule="evenodd" d="M126.718 672.098C125.914 672.155 125.111 672.213 124.317 672.268C125.124 672.211 125.921 672.155 126.718 672.098Z" fill="#414141"/>
<path fill-rule="evenodd" clip-rule="evenodd" d="M119.458 672.083C118.64 672.107 117.821 672.132 117.013 672.15C117.834 672.125 118.646 672.104 119.458 672.083Z" fill="#414141"/>
<path fill-rule="evenodd" clip-rule="evenodd" d="M82.1827 342.134C82.2367 340.996 82.2898 339.857 82.3428 338.722C82.2888 339.862 82.2367 340.998 82.1827 342.134Z" fill="#414141"/>
<path fill-rule="evenodd" clip-rule="evenodd" d="M631.516 657.166C629.027 657.037 626.537 656.907 624.047 656.777C626.537 656.907 629.027 657.036 631.516 657.166Z" fill="#414141"/>
<path fill-rule="evenodd" clip-rule="evenodd" d="M781.705 243.369C779.544 243.557 777.383 243.745 775.224 243.931C777.385 243.744 779.545 243.556 781.705 243.369Z" fill="#414141"/>
<path fill-rule="evenodd" clip-rule="evenodd" d="M171.558 337.321C171.491 339.383 171.422 341.445 171.355 343.501C171.423 341.438 171.491 339.38 171.558 337.321Z" fill="#414141"/>
<path fill-rule="evenodd" clip-rule="evenodd" d="M126.96 660.692C124.704 660.829 122.449 660.965 120.193 661.102C122.463 661.205 124.767 661.852 126.96 660.692Z" fill="#414141"/>
<path fill-rule="evenodd" clip-rule="evenodd" d="M140.31 416.786C140.293 414.819 140.276 412.852 140.26 410.89C140.277 412.858 140.293 414.822 140.31 416.786Z" fill="#414141"/>
<path fill-rule="evenodd" clip-rule="evenodd" d="M146.084 478.586C144.105 478.612 142.124 478.639 140.146 478.665C142.126 478.638 144.105 478.612 146.084 478.586Z" fill="#414141"/>
<path fill-rule="evenodd" clip-rule="evenodd" d="M644.368 444.006C644.418 445.505 644.467 447.004 644.514 448.496C644.464 446.995 644.416 445.501 644.368 444.006Z" fill="#414141"/>
<path fill-rule="evenodd" clip-rule="evenodd" d="M113.141 380.531C113.222 382.023 113.303 383.514 113.382 384.998C113.3 383.505 113.22 382.018 113.141 380.531Z" fill="#414141"/>
<path fill-rule="evenodd" clip-rule="evenodd" d="M155.37 654.054C153.93 653.956 152.49 653.859 151.053 653.766C152.136 654.633 153.225 654.705 155.37 654.054Z" fill="#414141"/>
<path fill-rule="evenodd" clip-rule="evenodd" d="M165.007 459.056C164.908 460.664 164.809 462.272 164.711 463.875C164.81 462.266 164.908 460.661 165.007 459.056Z" fill="#414141"/>
<path fill-rule="evenodd" clip-rule="evenodd" d="M703.422 205.252C703.407 203.699 703.392 202.146 703.376 200.599C703.391 202.154 703.406 203.703 703.422 205.252Z" fill="#414141"/>
<path fill-rule="evenodd" clip-rule="evenodd" d="M163.264 478.911L157.897 478.794C159.668 479.65 161.457 479.68 163.264 478.911Z" fill="#414141"/>
<path fill-rule="evenodd" clip-rule="evenodd" d="M113.749 490.372C115.015 490.383 116.28 490.393 117.537 490.406C116.268 490.396 115.008 490.384 113.749 490.372Z" fill="#414141"/>
<path fill-rule="evenodd" clip-rule="evenodd" d="M577.221 654.672C575.469 654.695 573.717 654.718 571.965 654.74C573.73 655.625 575.484 655.75 577.221 654.672Z" fill="#414141"/>
<path fill-rule="evenodd" clip-rule="evenodd" d="M170.941 350.564C170.854 352.178 170.767 353.792 170.68 355.401C170.767 353.785 170.854 352.175 170.941 350.564Z" fill="#414141"/>
<path fill-rule="evenodd" clip-rule="evenodd" d="M738.482 247.158C736.983 246.419 735.472 246.295 733.946 247.078C735.459 247.105 736.97 247.132 738.482 247.158Z" fill="#414141"/>
<path fill-rule="evenodd" clip-rule="evenodd" d="M219.974 369.201C219.85 370.562 219.726 371.924 219.602 373.281C219.727 371.918 219.85 370.559 219.974 369.201Z" fill="#414141"/>
<path fill-rule="evenodd" clip-rule="evenodd" d="M93.3473 337.434C94.1173 336.102 94.0903 334.777 93.3093 333.464C93.3223 334.789 93.3343 336.112 93.3473 337.434Z" fill="#414141"/>
<path fill-rule="evenodd" clip-rule="evenodd" d="M170.695 291.193C170.695 292.54 170.694 293.888 170.694 295.231C170.695 293.881 170.695 292.537 170.695 291.193Z" fill="#414141"/>
<path fill-rule="evenodd" clip-rule="evenodd" d="M116.961 477.943C115.418 477.47 113.875 476.801 112.339 477.959C113.88 477.954 115.42 477.948 116.961 477.943Z" fill="#414141"/>
<path fill-rule="evenodd" clip-rule="evenodd" d="M828.411 656.56C826.989 655.935 825.57 655.607 824.169 656.608C825.584 656.591 826.997 656.576 828.411 656.56Z" fill="#414141"/>
<path fill-rule="evenodd" clip-rule="evenodd" d="M537.548 654.554C536.027 653.89 534.51 653.525 533.009 654.601C534.523 654.585 536.035 654.57 537.548 654.554Z" fill="#414141"/>
<path fill-rule="evenodd" clip-rule="evenodd" d="M876.036 457.829C875.922 459.202 875.807 460.575 875.694 461.944C875.809 460.57 875.923 459.2 876.036 457.829Z" fill="#414141"/>
<path fill-rule="evenodd" clip-rule="evenodd" d="M523.012 378.745C521.516 378.201 520.025 377.917 518.556 378.826C520.042 378.798 521.527 378.772 523.012 378.745Z" fill="#414141"/>
<path fill-rule="evenodd" clip-rule="evenodd" d="M170.964 419.615C170.881 420.957 170.798 422.299 170.716 423.638C170.799 422.295 170.882 420.955 170.964 419.615Z" fill="#414141"/>
<path fill-rule="evenodd" clip-rule="evenodd" d="M877.003 298.523C877.127 299.604 877.251 300.686 877.374 301.761C877.25 300.678 877.127 299.601 877.003 298.523Z" fill="#414141"/>
<path fill-rule="evenodd" clip-rule="evenodd" d="M963.715 612.015C963.792 613.068 963.868 614.12 963.944 615.166C963.865 614.112 963.79 613.063 963.715 612.015Z" fill="#414141"/>
<path fill-rule="evenodd" clip-rule="evenodd" d="M139.646 426.717C139.73 425.629 139.814 424.541 139.898 423.458C139.814 424.548 139.73 425.633 139.646 426.717Z" fill="#414141"/>
<path fill-rule="evenodd" clip-rule="evenodd" d="M644.873 453.264C644.624 454.056 644.375 454.849 644.126 455.642C645.789 456.044 646.038 455.251 644.873 453.264Z" fill="#414141"/>
<path fill-rule="evenodd" clip-rule="evenodd" d="M544.921 376.955C543.567 376.949 542.213 376.944 540.859 376.938C542.211 377.58 543.564 378.021 544.921 376.955Z" fill="#414141"/>
<path fill-rule="evenodd" clip-rule="evenodd" d="M875.277 464.33C875.231 465.53 875.185 466.731 875.141 467.927C875.188 466.726 875.233 465.528 875.277 464.33Z" fill="#414141"/>
<path fill-rule="evenodd" clip-rule="evenodd" d="M216.687 476.982C216.639 478.087 216.59 479.192 216.541 480.291C216.588 479.183 216.638 478.083 216.687 476.982Z" fill="#414141"/>
<path fill-rule="evenodd" clip-rule="evenodd" d="M888.699 659.22C887.414 658.367 886.126 658.441 884.836 659.206C886.124 659.211 887.412 659.216 888.699 659.22Z" fill="#414141"/>
<path fill-rule="evenodd" clip-rule="evenodd" d="M854.861 283.086C854.792 284.214 854.722 285.343 854.65 286.464C854.719 285.334 854.79 284.21 854.861 283.086Z" fill="#414141"/>
<path fill-rule="evenodd" clip-rule="evenodd" d="M895.385 659.336C894.049 659.341 892.713 659.347 891.378 659.353C892.718 660.265 894.053 660.308 895.385 659.336Z" fill="#414141"/>
<path fill-rule="evenodd" clip-rule="evenodd" d="M155.597 265.379C155.586 264.233 155.576 263.088 155.566 261.945C155.577 263.092 155.587 264.235 155.597 265.379Z" fill="#414141"/>
<path fill-rule="evenodd" clip-rule="evenodd" d="M768.946 245.339C767.668 245.506 766.39 245.673 765.113 245.839C766.391 245.672 767.669 245.506 768.946 245.339Z" fill="#414141"/>
<path fill-rule="evenodd" clip-rule="evenodd" d="M881.722 344.238C881.705 345.308 881.688 346.379 881.668 347.444C881.685 346.372 881.703 345.305 881.722 344.238Z" fill="#414141"/>
<path fill-rule="evenodd" clip-rule="evenodd" d="M146.993 344.084C147.063 342.994 147.133 341.904 147.203 340.819C147.133 341.911 147.062 342.998 146.993 344.084Z" fill="#414141"/>
<path fill-rule="evenodd" clip-rule="evenodd" d="M445.065 658.058C443.488 658.201 441.911 658.344 440.335 658.486C441.912 658.343 443.488 658.201 445.065 658.058Z" fill="#414141"/>
<path fill-rule="evenodd" clip-rule="evenodd" d="M450.334 617.235C451.187 617.249 452.038 617.262 452.883 617.28C452.028 617.269 451.181 617.252 450.334 617.235Z" fill="#414141"/>
<path fill-rule="evenodd" clip-rule="evenodd" d="M450.262 657.434C448.94 657.564 447.616 657.695 446.294 657.825C447.617 657.694 448.94 657.564 450.262 657.434Z" fill="#414141"/>
<path fill-rule="evenodd" clip-rule="evenodd" d="M688.283 568.365C686.562 578.089 701.674 587.599 702.872 573.776C703.31 568.721 699.93 565.167 696.145 562.077C690.773 557.692 687.772 561.891 688.283 568.365Z" fill="#414141"/>
<path fill-rule="evenodd" clip-rule="evenodd" d="M854.856 449.728C851.296 451.185 824.097 460.048 838.225 464.506C841.965 465.686 847.618 465.862 850.86 463.783C854.76 461.281 858.694 453.898 854.856 449.728Z" fill="#414141"/>
<path fill-rule="evenodd" clip-rule="evenodd" d="M848.162 318.044C838.93 316.972 830.424 332.135 841.806 331.643C850.091 331.284 861.233 318.044 848.162 318.044Z" fill="#414141"/>
<path fill-rule="evenodd" clip-rule="evenodd" d="M815.137 355.223C807.428 361.949 821.717 377.002 827.39 371.176C830.287 368.2 827.615 361.789 825.224 359.299C822.77 356.744 818.404 356.264 815.137 355.223Z" fill="#414141"/>
<path fill-rule="evenodd" clip-rule="evenodd" d="M792.187 529.591C796.738 530.314 816.752 536.854 812.578 524.975C810.986 520.445 806.546 521.789 802.487 521.997C795.945 522.331 792.187 522.018 792.187 529.591Z" fill="#414141"/>
<path fill-rule="evenodd" clip-rule="evenodd" d="M805.37 560.188C798.557 563.833 808.516 584.231 814.163 579.891C821.998 573.869 811.282 562.02 805.37 560.188Z" fill="#414141"/>
<path fill-rule="evenodd" clip-rule="evenodd" d="M775.656 543.791C772.343 542.438 756.726 557.46 762.671 561.639C765.718 563.781 771.491 560.109 773.328 557.895C776.772 553.743 777.084 548.621 775.656 543.791Z" fill="#414141"/>
<path fill-rule="evenodd" clip-rule="evenodd" d="M865.759 421.006C862.373 421.562 856.527 421.738 856.308 426.496C856.116 430.678 861.359 432.033 865.05 432.361C868.88 432.701 873.95 431.62 874.023 426.805C874.1 421.61 865.879 421.923 865.759 421.006Z" fill="#414141"/>
<path fill-rule="evenodd" clip-rule="evenodd" d="M782.261 628.058C778.655 630.247 761.835 638.129 769.045 643.823C771.743 645.954 779.922 641.553 781.763 639.316C783.96 636.646 786.107 630.391 782.261 628.058Z" fill="#414141"/>
<path fill-rule="evenodd" clip-rule="evenodd" d="M735.503 570.864C736.024 562.164 721.346 558.701 724.389 571.05C725.247 574.532 726.077 579.817 730.382 580.019C735.47 580.258 735.654 574.238 735.503 570.864Z" fill="#414141"/>
<path fill-rule="evenodd" clip-rule="evenodd" d="M780.845 419.574C780.743 426.174 793.389 431.994 793.487 421.533C793.574 412.185 780.373 409.449 780.845 419.574Z" fill="#414141"/>
<path fill-rule="evenodd" clip-rule="evenodd" d="M789.196 385.2C786.08 386.204 781.939 386.721 781.665 390.68C781.374 394.87 785.266 396.735 788.768 396.5C791.64 396.307 795.89 394.181 796.412 391.065C797.177 386.491 792.713 386.192 789.196 385.2Z" fill="#414141"/>
<path fill-rule="evenodd" clip-rule="evenodd" d="M847.138 506.033C847.191 500.587 836.277 494.042 834.267 500.361C833.624 502.383 838.768 511.45 840.479 512.129C845.006 513.926 845.638 509.738 847.138 506.033Z" fill="#414141"/>
<path fill-rule="evenodd" clip-rule="evenodd" d="M757.703 596.676C761.391 599.977 772.454 609.25 771.627 596.802C771.099 588.85 756.73 589.265 757.703 596.676Z" fill="#414141"/>
<path fill-rule="evenodd" clip-rule="evenodd" d="M577.46 632.253C576.251 627.019 558.943 636.099 564.719 642.71C566.657 644.929 571.726 642.921 573.675 641.606C577.532 639.003 577.616 636.6 577.46 632.253Z" fill="#414141"/>
<path fill-rule="evenodd" clip-rule="evenodd" d="M673.895 520.215C673.22 517.882 672.47 513.756 670.244 512.267C666.216 509.573 662.709 513.637 662.708 517.92C662.707 525.91 671.802 528.43 673.895 520.215Z" fill="#414141"/>
<path fill-rule="evenodd" clip-rule="evenodd" d="M716.792 613.634C712.298 614.664 702.292 625.588 708.095 630.044C713.68 634.333 721.108 616.897 716.792 613.634Z" fill="#414141"/>
<path fill-rule="evenodd" clip-rule="evenodd" d="M712.514 530.946C706.736 531.407 698.794 540.764 707.775 542.251C714.8 543.415 722.97 533.238 712.514 530.946Z" fill="#414141"/>
<path fill-rule="evenodd" clip-rule="evenodd" d="M660.204 574.003C658.755 569.122 644.425 574.352 645.23 579.726C645.658 582.583 651.517 583.254 654.597 582.499C659.131 581.386 660.308 578.412 660.204 574.003Z" fill="#414141"/>
<path fill-rule="evenodd" clip-rule="evenodd" d="M829.121 301.397C829.017 295.087 816.892 292.515 816.004 298.874C815.201 304.619 829.273 310.732 829.121 301.397Z" fill="#414141"/>
<path fill-rule="evenodd" clip-rule="evenodd" d="M664.21 639.022C663.336 635.849 662.959 632.03 658.996 631.612C654.458 631.133 654.592 634.613 655.125 638.219C656.577 648.03 662.121 648.52 664.21 639.022Z" fill="#414141"/>
<path fill-rule="evenodd" clip-rule="evenodd" d="M855.686 376.472C862.007 377.898 873.584 365.724 866.508 363.112C861.522 361.269 855.686 372.799 855.686 376.472Z" fill="#414141"/>
<path fill-rule="evenodd" clip-rule="evenodd" d="M775.064 471.036C778.281 472.551 779.022 473.47 781.493 470.984C783.645 468.819 783.55 462.787 781.703 460.535C774.629 451.911 774.795 467.546 775.064 471.036Z" fill="#414141"/>
<path fill-rule="evenodd" clip-rule="evenodd" d="M748.818 453.545C745.463 453.972 735.494 463.428 740.685 467.186C747.046 471.79 750.645 457.367 748.818 453.545Z" fill="#414141"/>
<path fill-rule="evenodd" clip-rule="evenodd" d="M676.23 456.035C678.669 465.426 684.756 459.107 684.411 452.001C683.857 440.619 677.549 450.532 676.23 456.035Z" fill="#414141"/>
<path fill-rule="evenodd" clip-rule="evenodd" d="M639.218 606.861C635.092 608.568 629.492 624.34 635.385 625.186C642.004 626.135 639.8 610.145 639.218 606.861Z" fill="#414141"/>
<path fill-rule="evenodd" clip-rule="evenodd" d="M690.743 598C686.022 596.407 684.292 606.366 687.036 608.216C693.073 612.286 691.8 600.35 690.743 598Z" fill="#414141"/>
<path fill-rule="evenodd" clip-rule="evenodd" d="M735.503 570.864C735.563 572.186 735.622 573.508 735.684 574.822C735.625 573.498 735.565 572.181 735.503 570.864Z" fill="#414141"/>
<path fill-rule="evenodd" clip-rule="evenodd" d="M577.46 632.253C577.509 633.609 577.558 634.964 577.609 636.313C577.562 634.955 577.511 633.604 577.46 632.253Z" fill="#414141"/>
<path fill-rule="evenodd" clip-rule="evenodd" d="M660.204 574.003C660.23 575.153 660.258 576.303 660.288 577.446C660.262 576.293 660.232 575.148 660.204 574.003Z" fill="#414141"/>
<path fill-rule="evenodd" clip-rule="evenodd" d="M138.007 554.212C128.219 553.898 117.3 550.214 107.682 551.386C105.034 551.709 98.939 552.376 103.181 556.303C105.21 558.181 114.923 557.21 117.863 557.833C135.834 561.638 156.234 564.092 174.661 563.775C183.287 563.627 191.977 562.936 200.599 562.48C209.215 562.024 210.062 558.523 200.367 557.409C190.298 556.253 179.966 556.682 169.847 556.67C159.209 556.656 148.624 554.922 138.007 554.212Z" fill="#414141"/>
<path fill-rule="evenodd" clip-rule="evenodd" d="M116.519 530.63C117.461 533.312 118.288 539.468 121.898 539.872C126.954 540.437 127.791 531.756 127.605 528.581C127.379 524.749 126 518.383 121.237 519.711C117.214 520.831 116.811 527.563 116.519 530.63Z" fill="#414141"/>
<path fill-rule="evenodd" clip-rule="evenodd" d="M147.128 528.666C146.389 525.794 146.026 519.318 141.964 519.098C137.424 518.853 136.127 525.6 136.157 528.833C136.187 531.902 137.322 537.699 140.937 538.408C145.838 539.369 146.276 531.948 147.128 528.666Z" fill="#414141"/>
<path fill-rule="evenodd" clip-rule="evenodd" d="M198.104 533.818C199.575 537.27 200.548 542.025 205.1 539.671C208.62 537.851 209.111 530.51 208.447 527.149C207.759 523.667 206.302 519.673 202.301 521.239C197.687 523.046 198.153 530.017 198.104 533.818Z" fill="#414141"/>
<path fill-rule="evenodd" clip-rule="evenodd" d="M159.501 530.63C163.84 543.783 171.754 534.884 168.749 525.064C165.607 514.8 159.9 524.769 159.501 530.63Z" fill="#414141"/>
<path fill-rule="evenodd" clip-rule="evenodd" d="M180.642 531.281C181.847 533.597 183.129 538.593 186.377 538.067C190.359 537.421 190.487 529.758 190.05 526.904C189.669 524.406 188.547 520.243 185.214 520.297C180.398 520.375 180.721 528.283 180.642 531.281Z" fill="#414141"/>
<path fill-rule="evenodd" clip-rule="evenodd" d="M94.09 533.806C97.32 541.053 101.763 534.81 100.341 529.663C98.232 522.03 94.273 528.793 94.09 533.806Z" fill="#414141"/>
<path fill-rule="evenodd" clip-rule="evenodd" d="M173.194 556.679C176.721 556.665 180.25 556.652 183.777 556.639C180.247 555.974 176.717 555.715 173.194 556.679Z" fill="#414141"/>
<path fill-rule="evenodd" clip-rule="evenodd" d="M103.093 551.356C106.153 551.376 109.212 551.395 112.27 551.415C109.216 550.499 106.157 550.479 103.093 551.356Z" fill="#414141"/>
<path fill-rule="evenodd" clip-rule="evenodd" d="M198.104 533.818C198.126 532.06 198.15 530.302 198.171 528.548C197.266 530.296 197.329 532.052 198.104 533.818Z" fill="#414141"/>
<path fill-rule="evenodd" clip-rule="evenodd" d="M178.909 563.738C177.489 563.751 176.069 563.763 174.661 563.776C176.085 563.763 177.497 563.751 178.909 563.738Z" fill="#414141"/>
<path fill-rule="evenodd" clip-rule="evenodd" d="M202.755 562.48C201.317 562.48 199.878 562.479 198.45 562.48C199.894 562.48 201.324 562.48 202.755 562.48Z" fill="#414141"/>
<path fill-rule="evenodd" clip-rule="evenodd" d="M190.963 556.831C192.963 556.995 194.963 557.159 196.962 557.323C194.962 557.159 192.963 556.995 190.963 556.831Z" fill="#414141"/>
<path fill-rule="evenodd" clip-rule="evenodd" d="M163.923 556.657C165.898 556.661 167.872 556.665 169.847 556.669C167.873 555.837 165.899 555.813 163.923 556.657Z" fill="#414141"/>
<path fill-rule="evenodd" clip-rule="evenodd" d="M180.642 531.281C180.691 529.449 180.739 527.617 180.785 525.787C180.736 527.62 180.689 529.451 180.642 531.281Z" fill="#414141"/>
<path fill-rule="evenodd" clip-rule="evenodd" d="M208.446 527.149C208.457 528.936 208.468 530.723 208.482 532.503C208.471 530.714 208.459 528.932 208.446 527.149Z" fill="#414141"/>
<path fill-rule="evenodd" clip-rule="evenodd" d="M126.786 553.547C128.532 553.705 130.277 553.862 132.021 554.02C130.275 553.862 128.53 553.705 126.786 553.547Z" fill="#414141"/>
<path fill-rule="evenodd" clip-rule="evenodd" d="M94.0898 533.806C94.1468 532.245 94.2028 530.684 94.2588 529.125C94.2018 530.687 94.1468 532.246 94.0898 533.806Z" fill="#414141"/>
<path fill-rule="evenodd" clip-rule="evenodd" d="M168.359 563.79C167.144 563.767 165.929 563.744 164.726 563.723C165.945 563.747 167.152 563.769 168.359 563.79Z" fill="#414141"/>
<path fill-rule="evenodd" clip-rule="evenodd" d="M116.519 530.63C116.626 529.508 116.733 528.385 116.839 527.267C116.732 528.391 116.625 529.51 116.519 530.63Z" fill="#414141"/>
<path fill-rule="evenodd" clip-rule="evenodd" d="M159.501 530.63C159.579 529.478 159.658 528.325 159.736 527.176C159.657 528.329 159.579 529.48 159.501 530.63Z" fill="#414141"/>
<path fill-rule="evenodd" clip-rule="evenodd" d="M786.137 192.1C790.916 190.846 791.812 184.13 791.044 180.005C790.173 178.017 789.302 176.03 788.431 174.042C788.772 173.307 789.112 172.572 789.452 171.837C789.015 167.743 790.132 165.964 785.427 167.622C776.687 170.704 775.29 191.784 786.137 192.1Z" fill="#414141"/>
<path fill-rule="evenodd" clip-rule="evenodd" d="M715.395 179.115C711.458 178.805 704.307 183.39 708.226 187.826C710.654 190.574 718.655 189.274 721.919 189.848C726.248 190.609 730.763 191.65 728.421 185.166C726.582 180.074 720.014 178.982 715.395 179.115Z" fill="#414141"/>
<path fill-rule="evenodd" clip-rule="evenodd" d="M719.538 209.613C723.537 206.406 721.752 191.799 715.666 194.427C709.405 197.132 716.201 207.505 719.538 209.613Z" fill="#414141"/>
<path fill-rule="evenodd" clip-rule="evenodd" d="M791.044 180.005C791.044 181.542 791.045 183.08 791.048 184.61C791.882 183.07 791.856 181.537 791.044 180.005Z" fill="#414141"/>
<path fill-rule="evenodd" clip-rule="evenodd" d="M786.137 192.1C785.322 192.077 784.506 192.053 783.701 192.032C784.52 192.058 785.328 192.079 786.137 192.1Z" fill="#414141"/>
<path fill-rule="evenodd" clip-rule="evenodd" d="M292.355 612.767C292.729 619.411 299.864 614.499 299.358 610.054C298.439 601.988 293.878 609.959 292.355 612.767Z" fill="#414141"/>
</svg>
